<svg width="190" height="22" viewBox="0 0 190 22" fill="none" xmlns="http://www.w3.org/2000/svg">
<g clip-path="url(#clip0_2_1606)">
<path d="M1.81764 21.8581L11.0762 3.83228L20.3348 21.8581H22.1667L11.0762 0.19873L0 21.8581H1.81764Z" fill="#9A9A9A"/>
<path d="M84.6196 21.8581L93.8782 3.60516L103.137 21.8581H104.954L93.8782 0L82.8019 21.8581H84.6196Z" fill="#9A9A9A"/>
<path d="M54.0037 11.0852C54.0037 17.0181 58.6614 21.8581 64.3983 21.8581H76.0142V20.24H64.3983C59.5702 20.24 55.6368 16.1381 55.6368 11.0852C55.6368 6.03226 59.5702 1.93032 64.3983 1.93032H76.0142V0.312256H64.3983C58.6756 0.312256 54.0037 5.13806 54.0037 11.0852Z" fill="#9A9A9A"/>
<path d="M142.003 11.6103V0.283813H140.384V11.6245C140.384 17.3445 145.212 22.0141 151.162 22.0141C157.112 22.0141 161.94 17.3587 161.94 11.6245V0.283813H160.321V11.6245C160.321 16.4503 156.217 20.3819 151.162 20.3819C146.107 20.3819 142.003 16.4503 142.003 11.6245V11.6103Z" fill="#9A9A9A"/>
<path d="M133 0.269698V21.702L112.523 4.0026L112.466 21.8581H110.848L110.876 2.58325L110.89 0.19873L131.381 17.9265V0.269698H133Z" fill="#9A9A9A"/>
<path d="M184.235 10.2194H173.584C171.312 10.2194 169.452 8.36005 169.452 6.08909C169.452 3.81812 171.312 1.95876 173.584 1.95876H189.446V0.340698H173.584C170.418 0.340698 167.833 2.92392 167.833 6.08909C167.833 9.25425 170.418 11.8375 173.584 11.8375H184.235C186.507 11.8375 188.367 13.6826 188.367 15.9678V16.1097C188.367 17.2168 187.941 18.253 187.16 19.0336C186.379 19.8142 185.342 20.2401 184.235 20.2401H168.103V21.8581H184.235C185.768 21.8581 187.217 21.262 188.31 20.1691C189.404 19.0762 190 17.6284 190 16.0955V15.9536C190 12.7884 187.416 10.2052 184.249 10.2052L184.235 10.2194Z" fill="#9A9A9A"/>
<path d="M41.5927 0.283813H25.4611L27.2362 1.90188H41.5927C44.2197 1.90188 46.364 4.03091 46.364 6.65672C46.364 9.28252 44.2197 11.4116 41.5927 11.4116H32.6181L44.2197 21.8722H46.6338L36.8214 13.0296H41.5927C45.1143 13.0296 47.9828 10.1767 47.9828 6.65672C47.9828 3.13672 45.1143 0.283813 41.5927 0.283813Z" fill="#9A9A9A"/>
</g>
<defs>
<clipPath id="clip0_2_1606">
<rect width="190" height="22" fill="white"/>
</clipPath>
</defs>
</svg>
