<svg width="181" height="64" viewBox="0 0 181 64" fill="none" xmlns="http://www.w3.org/2000/svg">
<path d="M127.814 0L129.242 -0.46117L128.906 -1.5H127.814V0ZM140.186 0V-1.5H139.094L138.758 -0.46117L140.186 0ZM181 48.5H182.5V48.5H181ZM140.186 64L138.758 64.4612L139.094 65.5H140.186V64ZM127.814 64V65.5H128.906L129.242 64.4612L127.814 64ZM0 15.5H-1.5V15.5H0ZM127.814 0L126.387 0.46117C127.425 3.67301 130.438 6 134 6V4.5V3C131.778 3 129.891 1.54923 129.242 -0.46117L127.814 0ZM134 4.5V6C137.562 6 140.575 3.67301 141.613 0.46117L140.186 0L138.758 -0.46117C138.109 1.54923 136.222 3 134 3V4.5ZM140.186 0V1.5H165.5V0V-1.5H140.186V0ZM165.5 0V1.5C173.232 1.5 179.5 7.76801 179.5 15.5H181H182.5C182.5 6.11116 174.889 -1.5 165.5 -1.5V0ZM181 15.5H179.5V48.5H181H182.5V15.5H181ZM181 48.5H179.5C179.5 56.232 173.232 62.5 165.5 62.5V64V65.5C174.889 65.5 182.5 57.8888 182.5 48.5H181ZM165.5 64V62.5H140.186V64V65.5H165.5V64ZM140.186 64L141.613 63.5388C140.575 60.327 137.562 58 134 58V59.5V61C136.222 61 138.109 62.4508 138.758 64.4612L140.186 64ZM134 59.5V58C130.438 58 127.425 60.327 126.387 63.5388L127.814 64L129.242 64.4612C129.891 62.4508 131.778 61 134 61V59.5ZM127.814 64V62.5H15.5V64V65.5H127.814V64ZM15.5 64V62.5C7.76801 62.5 1.5 56.232 1.5 48.5H0H-1.5C-1.5 57.8888 6.11116 65.5 15.5 65.5V64ZM0 48.5H1.5V15.5H0H-1.5V48.5H0ZM0 15.5H1.5C1.5 7.76801 7.76801 1.5 15.5 1.5V0V-1.5C6.11116 -1.5 -1.5 6.11116 -1.5 15.5H0ZM15.5 0V1.5H127.814V0V-1.5H15.5V0Z" fill="white"/>
</svg>
