<svg width="212" height="64" viewBox="0 0 212 64" fill="none" xmlns="http://www.w3.org/2000/svg">
<path d="M152.814 0L154.242 -0.46117L153.906 -1.5H152.814V0ZM165.186 0V-1.5H164.094L163.758 -0.46117L165.186 0ZM165.186 64L163.758 64.4612L164.094 65.5H165.186V64ZM152.814 64V65.5H153.906L154.242 64.4612L152.814 64ZM15.5 64V65.5V65.5V64ZM0 15.5H-1.5V15.5H0ZM152.814 0L151.387 0.46117C152.425 3.67301 155.438 6 159 6V4.5V3C156.778 3 154.891 1.54923 154.242 -0.46117L152.814 0ZM159 4.5V6C162.562 6 165.575 3.67301 166.613 0.46117L165.186 0L163.758 -0.46117C163.109 1.54923 161.222 3 159 3V4.5ZM165.186 0V1.5H196.5V0V-1.5H165.186V0ZM196.5 0V1.5C204.232 1.5 210.5 7.76801 210.5 15.5H212H213.5C213.5 6.11116 205.889 -1.5 196.5 -1.5V0ZM212 15.5H210.5V48.5H212H213.5V15.5H212ZM212 48.5H210.5C210.5 56.232 204.232 62.5 196.5 62.5V64V65.5C205.889 65.5 213.5 57.8888 213.5 48.5H212ZM196.5 64V62.5H165.186V64V65.5H196.5V64ZM165.186 64L166.613 63.5388C165.575 60.327 162.562 58 159 58V59.5V61C161.222 61 163.109 62.4508 163.758 64.4612L165.186 64ZM159 59.5V58C155.438 58 152.425 60.327 151.387 63.5388L152.814 64L154.242 64.4612C154.891 62.4508 156.778 61 159 61V59.5ZM152.814 64V62.5H15.5V64V65.5H152.814V64ZM15.5 64V62.5C7.76802 62.5 1.5 56.232 1.5 48.5H0H-1.5C-1.5 57.8888 6.11116 65.5 15.5 65.5V64ZM0 48.5H1.5V15.5H0H-1.5V48.5H0ZM0 15.5H1.5C1.5 7.76801 7.76801 1.5 15.5 1.5V0V-1.5C6.11116 -1.5 -1.5 6.11116 -1.5 15.5H0ZM15.5 0V1.5H152.814V0V-1.5H15.5V0Z" fill="white"/>
</svg>
