<svg width="257" height="227" viewBox="0 0 257 227" fill="none" xmlns="http://www.w3.org/2000/svg">
<g clip-path="url(#clip0_55_792)">
<path d="M137.07 166.52L134.96 165.47C138 159.36 142.47 154.02 147.89 150.01C152.17 146.84 156.97 144.52 162.15 143.1L162.29 143.06L190.4 142.41L190.2 117.94H192.55L192.75 144.71L162.63 145.4C157.79 146.74 153.3 148.92 149.29 151.89C144.17 155.68 139.94 160.74 137.06 166.51L137.07 166.52Z" fill="#FEF9EC"/>
<path d="M127.37 167.26H126.11C112.25 167.26 100.9 156.65 100.22 143.37H67.2999V111.25C52.1899 110.59 40.1099 98.12 40.1099 82.89C40.1099 67.66 52.1899 55.19 67.2999 54.53V23.9H100.22C100.9 10.61 112.25 0.0100098 126.11 0.0100098H127.37V59.48H126.11C125.73 59.48 125.35 59.48 124.97 59.51L123.95 59.56L123.69 58.57C122.39 53.6 117.89 50.14 112.75 50.14C106.51 50.14 101.44 55.21 101.44 61.45C101.44 64.83 102.94 68.01 105.55 70.17L106.36 70.84L105.12 73.07L104 72.41C102.11 71.29 99.9399 70.71 97.7299 70.71C90.9099 70.71 85.3599 76.26 85.3599 83.08C85.3599 89.9 90.9099 95.45 97.7299 95.45C100.16 95.45 102.51 94.75 104.53 93.42L105.66 92.67L106.32 93.86C106.39 93.99 106.47 94.12 106.54 94.24L107.14 95.23L106.21 95.92C103.31 98.05 101.58 101.46 101.58 105.04C101.58 111.28 106.65 116.35 112.89 116.35C118.63 116.35 123.46 112.06 124.13 106.36L124.26 105.21L125.41 105.24C125.64 105.24 125.87 105.24 126.1 105.24H127.36V167.27L127.37 167.26ZM69.8299 140.84H102.72V142.1C102.72 154.17 112.54 164.06 124.86 164.7V111.98C122.45 116.11 117.97 118.84 112.91 118.84C105.28 118.84 99.0799 112.63 99.0799 105.01C99.0799 102.33 99.8699 99.73 101.29 97.52C100.14 97.8 98.9499 97.94 97.7499 97.94C89.5399 97.94 82.8599 91.26 82.8599 83.05C82.8599 74.84 89.5399 68.16 97.7499 68.16C98.7999 68.16 99.8499 68.27 100.87 68.49C99.6099 66.38 98.9299 63.95 98.9299 61.43C98.9299 53.8 105.14 47.6 112.76 47.6C117.87 47.6 122.47 50.41 124.86 54.73V2.55001C112.54 3.19001 102.72 13.08 102.72 25.15V26.41H69.8299V57.01H68.5699C54.2699 57.01 42.6399 68.61 42.6399 82.88C42.6399 97.15 54.2699 108.75 68.5699 108.75H69.8299V140.85V140.84Z" fill="#FEF9EC"/>
<path d="M97.74 97.5301C89.76 97.5301 83.27 91.0401 83.27 83.0601C83.27 75.0801 89.76 68.5901 97.74 68.5901C100.32 68.5901 102.86 69.2801 105.07 70.5901L105.75 70.9901L105.39 71.7001C103.68 75.0201 102.82 78.6001 102.82 82.3501C102.82 86.4601 103.9 90.4901 105.95 94.0301L106.35 94.7201L105.69 95.1601C103.33 96.7201 100.58 97.5401 97.74 97.5401V97.5301ZM97.74 70.2701C90.69 70.2701 84.95 76.0101 84.95 83.0601C84.95 90.1101 90.69 95.8501 97.74 95.8501C99.99 95.8501 102.18 95.2701 104.11 94.1601C102.17 90.5501 101.15 86.4801 101.15 82.3501C101.15 78.6601 101.98 74.9801 103.54 71.6601C101.75 70.7501 99.76 70.2701 97.74 70.2701Z" fill="#FEF9EC"/>
<path d="M105 72.43L104.2 71.77C101.11 69.21 99.3301 65.44 99.3301 61.43C99.3301 54.04 105.35 48.02 112.74 48.02C118.84 48.02 124.17 52.13 125.71 58.02L125.97 59.02L124.94 59.07C116.76 59.47 109.3 64.24 105.48 71.51L105 72.43ZM112.75 49.71C106.28 49.71 101.02 54.97 101.02 61.44C101.02 64.61 102.28 67.6 104.52 69.8C108.57 62.85 115.8 58.23 123.8 57.48C122.15 52.86 117.74 49.71 112.76 49.71H112.75Z" fill="#FEF9EC"/>
<path d="M112.9 118.42C105.51 118.42 99.4897 112.4 99.4897 105.01C99.4897 100.76 101.54 96.7099 104.98 94.1899L105.72 93.6499L106.2 94.4299C110.32 101.21 117.51 105.4 125.42 105.63L126.34 105.66L126.23 106.57C125.45 113.33 119.72 118.42 112.91 118.42H112.9ZM105.27 96.1099C102.69 98.3299 101.18 101.59 101.18 105.01C101.18 111.48 106.44 116.74 112.91 116.74C118.56 116.74 123.36 112.73 124.42 107.27C116.63 106.74 109.59 102.64 105.27 96.1099Z" fill="#FEF9EC"/>
<path d="M97.7401 97.9499C89.5301 97.9499 82.8501 91.2699 82.8501 83.0599C82.8501 74.8499 89.5301 68.1699 97.7401 68.1699C100.4 68.1699 103.01 68.8799 105.29 70.2199L106.32 70.8199L105.78 71.8799C104.11 75.1399 103.26 78.6499 103.26 82.3399C103.26 86.3699 104.32 90.3399 106.34 93.7999L106.94 94.8299L105.95 95.4899C103.52 97.0899 100.69 97.9399 97.7601 97.9399L97.7401 97.9499ZM97.7401 70.6899C90.9201 70.6899 85.3701 76.2399 85.3701 83.0599C85.3701 89.8799 90.9201 95.4299 97.7401 95.4299C99.7801 95.4299 101.77 94.9299 103.54 93.9899C101.69 90.4099 100.72 86.4099 100.72 82.3499C100.72 78.7399 101.5 75.1399 102.98 71.8599C101.35 71.0999 99.5601 70.6899 97.7401 70.6899Z" fill="#FEF9EC"/>
<path d="M105.14 73.0901L103.94 72.1001C100.75 69.4601 98.9199 65.5701 98.9199 61.4401C98.9199 53.8101 105.13 47.6101 112.75 47.6101C119.04 47.6101 124.54 51.8501 126.13 57.9301L126.52 59.4301L124.97 59.5101C116.94 59.9001 109.61 64.5801 105.86 71.7201L105.14 73.0901ZM112.75 50.1301C106.51 50.1301 101.44 55.2001 101.44 61.4401C101.44 64.3101 102.52 67.0301 104.44 69.1101C108.51 62.4601 115.48 58.0101 123.21 57.1201C121.49 52.9401 117.38 50.1301 112.76 50.1301H112.75Z" fill="#FEF9EC"/>
<path d="M112.9 118.84C105.27 118.84 99.0698 112.63 99.0698 105.01C99.0698 100.62 101.19 96.45 104.73 93.85L105.84 93.04L106.55 94.22C110.6 100.88 117.65 104.99 125.42 105.22L126.79 105.26L126.63 106.62C125.82 113.59 119.91 118.84 112.89 118.84H112.9ZM105.19 96.74C102.92 98.87 101.59 101.87 101.59 105.01C101.59 111.25 106.66 116.32 112.9 116.32C118.19 116.32 122.71 112.68 123.9 107.65C116.33 107 109.5 103.01 105.19 96.74Z" fill="#FEF9EC"/>
<path d="M70.46 24.8501L101.02 56.9501L100.23 57.7401L68.25 27.0501L70.46 24.8501Z" fill="#FEF9EC"/>
<path d="M41.9399 80.73L84.1199 82.09L84.1099 83.2L41.9199 83.85L41.9399 80.73Z" fill="#FEF9EC"/>
<path d="M68.2598 139.99L100.24 109.3L101.02 110.08L70.4698 142.19L68.2598 139.99Z" fill="#FEF9EC"/>
<path d="M192.11 51.79H189.76V28.26C184.79 29.09 179.75 29.34 174.76 29.01C173.37 28.92 166.15 28.35 160.37 26.37C146.12 21.49 138.15 7.13995 135.38 1.18995L137.51 0.199951C140.15 5.86995 147.74 19.5599 161.13 24.1399C166.64 26.0299 173.58 26.57 174.92 26.66C180.18 27.01 185.5 26.69 190.72 25.7L192.12 25.43V51.7799L192.11 51.79Z" fill="#FEF9EC"/>
<path d="M202.96 59.82C197.5 53.62 191.8 50.51 191.75 50.48C191.5 50.35 189.78 49.43 187.59 48.3C184.97 46.95 182.81 45.89 181.66 45.32C181.22 45.1 180.93 44.96 180.8 44.89L177.74 43.31C167.17 37.83 160.19 34.22 155.27 30.24C146.99 23.55 140.76 13.95 136.76 1.72998L134.52 2.45998C138.66 15.12 145.15 25.08 153.79 32.07C158.9 36.2 165.96 39.86 176.66 45.4L179.71 46.98C179.84 47.05 180.15 47.2 180.62 47.43C181.77 48 183.91 49.05 186.51 50.39C188.69 51.51 190.38 52.42 190.63 52.55C190.83 52.66 210.13 63.61 209.89 83.06C209.71 97.66 198.55 107.04 193.86 110.34C193.55 111.4 193.21 112.44 192.83 113.47L192.97 113.72C193.17 113.61 197.99 110.87 202.78 105.61C208.86 98.93 212.13 91.14 212.24 83.09C212.34 74.87 209.13 66.82 202.96 59.82Z" fill="#FEF9EC"/>
<path d="M171.81 144.93L170.27 143.23C170.77 142.82 172.93 140.98 173.95 140.05C177.62 136.71 195.88 118.81 194.93 94.6799C194.85 92.5899 194.49 88.3099 192.99 83.1699C190.43 74.3599 186.15 68.4099 184.42 66.2599C179.44 60.0399 173.39 55.8199 168.53 52.4399L168.46 52.3899C167.5 51.7199 167.15 51.5099 166.78 51.2899C166.65 51.2099 166.51 51.1299 166.36 51.0299C166.33 51.0099 165.77 50.6599 165.11 50.1999C154.32 42.7199 148.4 35.9999 148.16 35.7099C146.85 34.2099 144.41 31.4199 141.97 27.3899C137.32 19.7299 135.34 11.1599 134.84 8.70992L136.42 7.16992C138.57 15.2299 140.59 20.0299 144 26.2599C146.17 30.2199 148.61 32.7199 149.96 34.2699C150.02 34.3399 155.95 41.0699 166.49 48.3799C167.11 48.8099 167.65 49.1499 167.65 49.1499C167.8 49.2399 167.92 49.3199 168.04 49.3899C168.43 49.6199 168.83 49.8699 169.84 50.5799L169.91 50.6299C174.63 53.9199 181.09 58.4299 186.28 64.8999C188.09 67.1499 192.58 73.3899 195.24 82.5799C196.8 87.9399 197.17 92.4099 197.26 94.5999C198.24 119.69 179.35 138.22 175.55 141.68C174.51 142.63 172.29 144.51 171.78 144.93H171.81Z" fill="#FEF9EC"/>
<path d="M185.77 128.89L183.92 128.08C186.92 121.23 188.38 113.69 188.16 106.29C188 101.01 186.76 90.6699 180.27 80.7199C174.97 72.5999 167.87 67.4899 164.84 65.3099L164.76 65.2499C163.09 64.0499 161.59 63.0899 160.15 62.1699C157.24 60.3099 154.48 58.5499 150.9 55.1599C150.71 54.9799 146.14 50.6399 142.63 45.5099C138.34 39.2599 135.72 30.7799 134.84 20.2999C134.2 12.6899 134.7 6.2899 134.94 3.8999L136.95 4.0999C136.51 8.3999 134.82 30.5499 144.3 44.3699C147.7 49.3199 152.25 53.6499 152.3 53.6899C155.75 56.9499 158.42 58.6599 161.26 60.4699C162.73 61.4099 164.25 62.3799 165.96 63.6199L166.04 63.6799C169.16 65.9299 176.47 71.1799 181.98 79.6199C188.74 89.9799 190.03 100.74 190.2 106.23C190.43 113.93 188.91 121.77 185.79 128.89H185.77Z" fill="#FEF9EC"/>
<path d="M137.02 166.09L135.01 165.89C135.05 165.46 135.1 165.03 135.16 164.59C135.37 163.03 135.69 161.47 136.11 159.96C138.57 151.04 143.81 145.59 148.03 141.21L148.48 140.74C159.29 129.48 164.72 123.83 168.19 117.77C171.06 112.74 176.41 103.39 174.13 92.51C171.97 82.22 164.04 75.24 161.05 72.61C158.65 70.5 156.01 68.63 153.21 67.06L154.2 65.3C157.13 66.94 159.88 68.89 162.39 71.09C165.51 73.84 173.81 81.15 176.11 92.09C178.55 103.71 172.95 113.5 169.95 118.76C166.36 125.04 160.88 130.75 149.95 142.13L149.5 142.6C145.44 146.81 140.4 152.06 138.08 160.48C137.69 161.9 137.39 163.37 137.19 164.84C137.13 165.25 137.09 165.66 137.05 166.07L137.02 166.09Z" fill="#FEF9EC"/>
<path d="M137.22 144.05L135.24 143.67C137.79 130.44 142.67 119.06 149.74 109.85C151.03 108.16 152.29 106.69 153.5 105.26C156.97 101.18 159.7 97.9599 160.9 92.7099C162.47 85.8199 160.71 78.0899 155.65 69.7399L157.38 68.6899C162.72 77.4999 164.56 85.7299 162.87 93.1499C161.56 98.8799 158.54 102.44 155.04 106.55C153.84 107.96 152.61 109.41 151.34 111.06C144.47 120.03 139.72 131.12 137.22 144.04V144.05Z" fill="#FEF9EC"/>
<path d="M136.02 167.17H134.81L134.84 165.97C135.06 156.68 135.12 147.72 135.01 139.34C135.01 139.11 134.95 133.7 135.95 122.64C136.2 119.83 136.63 115.12 139.08 110.12C140.18 107.87 141.62 106.01 142.39 105.01L142.57 104.78C144.74 101.95 146.65 100.17 147.91 99C148.14 98.79 148.34 98.6 148.52 98.42C149.99 97.01 154.9 91.84 156.36 84.4C158.23 74.91 154.51 69.14 153.32 67.6C152.2 66.14 151.05 65.21 149.59 64.03C147.73 62.53 145.42 60.66 142.41 56.98C142.34 56.9 140.73 54.92 139.15 52.57C134.95 46.32 133.33 29.5 134.21 1.15001L134.25 0.0100098H135.39C149.89 0.0100098 161.69 11.04 161.69 24.59H159.34C159.34 12.69 149.21 2.94001 136.53 2.39001C135.76 29.16 137.29 45.6 141.1 51.26C142.62 53.52 144.22 55.48 144.23 55.5C147.08 58.99 149.2 60.7 151.06 62.21C152.57 63.43 153.88 64.49 155.18 66.17C160.47 73.05 159.18 82.21 158.66 84.86C157.06 92.98 151.73 98.6 150.14 100.13C149.95 100.31 149.74 100.51 149.5 100.73C148.29 101.85 146.47 103.55 144.42 106.22L144.24 106.46C143.52 107.39 142.18 109.13 141.18 111.17C139.1 115.42 138.61 119.28 138.28 122.86C137.3 133.78 137.35 139.27 137.35 139.32C137.45 147.36 137.4 155.92 137.2 164.79C148.68 164.17 159.76 154.75 161.28 144.07L163.61 144.4C162.78 150.23 159.28 156.06 154.02 160.39C148.78 164.7 142.21 167.17 136 167.17H136.02Z" fill="#FEF9EC"/>
<path d="M120.921 1.85349L119.915 1.93994L124.583 56.2798L125.589 56.1934L120.921 1.85349Z" fill="#FEF9EC"/>
<path d="M115.136 3.93121L114.137 4.07788L121.282 52.7563L122.281 52.6097L115.136 3.93121Z" fill="#FEF9EC"/>
<path d="M109.028 8.2749L108.047 8.51514L118.175 49.8731L119.156 49.6329L109.028 8.2749Z" fill="#FEF9EC"/>
<path d="M103.735 16.0049L102.781 16.3379L114.156 48.909L115.109 48.576L103.735 16.0049Z" fill="#FEF9EC"/>
<path d="M102.209 25.4131L101.271 25.7874L110.505 48.9333L111.443 48.559L102.209 25.4131Z" fill="#FEF9EC"/>
<path d="M94.9774 25.3552L94.0933 25.8435L107.301 49.7589L108.185 49.2706L94.9774 25.3552Z" fill="#FEF9EC"/>
<path d="M86.6588 25.3126L85.8369 25.8997L104.635 52.215L105.457 51.628L86.6588 25.3126Z" fill="#FEF9EC"/>
<path d="M77.8275 24.8408L77.0513 25.4871L101.34 54.6596L102.116 54.0133L77.8275 24.8408Z" fill="#FEF9EC"/>
<path d="M68.7705 55.3808L68.3765 56.3108L100.558 69.9444L100.952 69.0144L68.7705 55.3808Z" fill="#FEF9EC"/>
<path d="M68.824 45.9161L68.2964 46.7773L100.478 66.4908L101.006 65.6296L68.824 45.9161Z" fill="#FEF9EC"/>
<path d="M68.8748 36.7641L68.2651 37.5693L99.6536 61.3341L100.263 60.5288L68.8748 36.7641Z" fill="#FEF9EC"/>
<path d="M42.0335 76.0511L41.9585 77.0583L84.0619 80.1946L84.1369 79.1873L42.0335 76.0511Z" fill="#FEF9EC"/>
<path d="M44.5107 69.9902L44.3481 70.9871L84.9027 77.5991L85.0652 76.6022L44.5107 69.9902Z" fill="#FEF9EC"/>
<path d="M48.5865 64.6046L48.3379 65.5835L86.7291 75.3336L86.9777 74.3547L48.5865 64.6046Z" fill="#FEF9EC"/>
<path d="M52.8009 60.4621L52.5 61.4263L88.6986 72.7217L88.9995 71.7575L52.8009 60.4621Z" fill="#FEF9EC"/>
<path d="M60.6866 57.2696L60.3047 58.2046L92.2056 71.2361L92.5876 70.3011L60.6866 57.2696Z" fill="#FEF9EC"/>
<path d="M84.0732 84.8917L41.9683 88.1389L42.0459 89.1459L84.1509 85.8987L84.0732 84.8917Z" fill="#FEF9EC"/>
<path d="M84.7829 88.4924L44.4829 94.7312L44.6374 95.7293L84.9374 89.4906L84.7829 88.4924Z" fill="#FEF9EC"/>
<path d="M86.8065 91.6201L49.4478 102.023L49.7187 102.996L87.0774 92.5931L86.8065 91.6201Z" fill="#FEF9EC"/>
<path d="M103.073 96.2068L68.6196 109.308L68.9786 110.252L103.432 97.1509L103.073 96.2068Z" fill="#FEF9EC"/>
<path d="M92.227 95.26L57.2891 107.317L57.6186 108.272L92.5565 96.2147L92.227 95.26Z" fill="#FEF9EC"/>
<path d="M100.516 100.062L68.5562 117.734L69.0449 118.618L101.005 100.946L100.516 100.062Z" fill="#FEF9EC"/>
<path d="M99.867 104.868L68.4771 128.547L69.0853 129.354L100.475 105.674L99.867 104.868Z" fill="#FEF9EC"/>
<path d="M112.039 117.783L101.201 141.888L102.122 142.302L112.96 118.197L112.039 117.783Z" fill="#FEF9EC"/>
<path d="M102.471 112.668L78.0811 141.756L78.855 142.405L103.245 113.317L102.471 112.668Z" fill="#FEF9EC"/>
<path d="M104.806 115.62L86.52 141.294L87.3427 141.88L105.629 116.206L104.806 115.62Z" fill="#FEF9EC"/>
<path d="M108.28 117.328L94.2319 141.838L95.1082 142.34L109.156 117.831L108.28 117.328Z" fill="#FEF9EC"/>
<path d="M114.453 117.808L102.384 148.447L103.324 148.817L115.393 118.178L114.453 117.808Z" fill="#FEF9EC"/>
<path d="M117.491 116.647L106.31 156.187L107.281 156.462L118.463 116.922L117.491 116.647Z" fill="#FEF9EC"/>
<path d="M120.638 114.903L112.364 161.586L113.359 161.762L121.632 115.079L120.638 114.903Z" fill="#FEF9EC"/>
<path d="M124.561 109.728L119.198 164.426L120.203 164.524L125.567 109.827L124.561 109.728Z" fill="#FEF9EC"/>
<path d="M183.93 128.09C183.93 128.09 182.93 130.42 182.49 131.22C182.05 132.02 184.24 130.28 184.24 130.28L185.52 128.09" fill="#FEF9EC"/>
<path d="M0.359766 199.74C3.13977 196.55 5.92977 193.45 8.70977 190.42C11.4898 187.4 14.5198 184.49 17.7798 181.71C17.9398 181.59 18.1698 181.41 18.4798 181.17C18.7898 180.93 19.1098 180.69 19.4798 180.44C19.8398 180.2 20.1898 179.99 20.5098 179.8C20.8298 179.62 21.1098 179.53 21.3598 179.53C21.8398 179.53 22.3898 179.83 22.9898 180.44C23.2298 180.76 23.2898 181.15 23.1698 181.59C23.0898 181.79 23.0098 182 22.9298 182.23C22.8498 182.45 22.7498 182.66 22.6298 182.86C21.3798 185.36 20.1198 187.82 18.8498 190.24C17.5798 192.66 16.2998 195.1 15.0098 197.56C14.9298 197.68 14.8498 197.86 14.7698 198.1C14.8098 198.1 14.8298 198.11 14.8298 198.13C14.8298 198.15 14.8498 198.16 14.8898 198.16C14.9698 198.08 15.0498 197.99 15.1298 197.89C15.2098 197.79 15.2898 197.7 15.3698 197.62C17.3098 195.68 19.2298 193.74 21.1498 191.78C23.0698 189.82 24.9898 187.88 26.9298 185.94C31.2398 181.67 35.6498 177.52 40.1498 173.51C44.6498 169.5 49.2698 165.62 54.0298 161.87C54.3098 161.67 54.7898 161.35 55.4498 160.9C56.1198 160.46 56.6098 160.23 56.9298 160.23C57.2098 160.23 57.5398 160.41 57.8998 160.77C58.4598 161.33 58.6098 161.9 58.3198 162.46C58.0798 163.03 57.7298 163.63 57.2898 164.27C50.5098 173.51 43.7198 182.64 36.8998 191.67C30.0798 200.7 22.9498 209.58 15.4898 218.29C15.3698 218.45 15.2498 218.6 15.1298 218.74C15.0098 218.88 14.9498 219.05 14.9498 219.25C14.9498 219.33 14.8898 219.43 14.7698 219.55L13.4398 220.88C13.2398 221.08 13.0698 221.19 12.9298 221.21C12.7898 221.23 12.6198 221.18 12.4198 221.06C12.2198 220.98 12.0498 220.87 11.9098 220.73C11.7698 220.59 11.6398 220.46 11.5198 220.34C11.2798 220.02 11.2798 219.67 11.5198 219.31C11.6398 219.11 11.7698 218.94 11.9098 218.8C12.0498 218.66 12.1798 218.49 12.2998 218.29C17.0598 212.52 21.7098 206.71 26.2398 200.84C30.7798 194.97 35.3198 189.07 39.8798 183.15L53.6698 165.18C53.8298 164.94 53.9298 164.74 53.9698 164.57C53.8898 164.65 53.7298 164.77 53.4898 164.93C51.6798 166.46 49.8898 167.98 48.1398 169.47C46.3898 170.96 44.5998 172.49 42.7898 174.07C38.9598 177.42 35.2398 180.85 31.6298 184.35C28.0198 187.86 24.4198 191.43 20.8298 195.06C19.9398 195.99 19.0698 196.9 18.1998 197.78C17.3298 198.67 16.4498 199.56 15.5698 200.44C15.2498 200.72 14.9598 200.99 14.6898 201.26C14.4198 201.53 14.1398 201.77 13.8098 202.02C13.5298 202.26 13.2198 202.38 12.8998 202.38C12.6598 202.38 12.3598 202.26 11.9898 202.02C11.3398 201.54 11.1398 200.95 11.3798 200.27C11.5798 199.63 11.8198 199.04 12.1098 198.52C13.0798 196.67 14.0498 194.82 15.0098 192.99C15.9798 191.16 16.9298 189.29 17.8498 187.39C18.2098 186.7 18.5798 186.01 18.9398 185.3C19.2998 184.59 19.6498 183.86 19.9698 183.09C19.8098 183.17 19.7098 183.23 19.6698 183.27C16.8898 185.89 14.1698 188.52 11.4998 191.16C8.83977 193.8 6.23977 196.53 3.69977 199.36C3.41977 199.68 3.13977 199.98 2.84977 200.24C2.56977 200.5 2.28977 200.79 1.99977 201.12C1.71977 201.4 1.37977 201.44 0.969766 201.24C0.889766 201.2 0.809766 201.16 0.729766 201.12C0.649766 201.08 0.569766 201.04 0.489766 201C0.169766 200.76 0.00976562 200.56 0.00976562 200.39C0.00976562 200.22 0.129766 200.01 0.369766 199.72L0.359766 199.74Z" fill="#FEF9EC"/>
<path d="M36.5998 199.32C36.9998 198.15 37.7598 197 38.8698 195.87C39.9798 194.74 41.0398 193.83 42.0498 193.15C42.5298 192.83 42.9598 192.89 43.3198 193.33C43.7998 193.9 43.8598 194.48 43.4998 195.08C43.2998 194.96 43.1198 194.95 42.9598 195.05C42.7998 195.15 42.6398 195.26 42.4798 195.38C42.1198 195.66 41.7098 196.01 41.2698 196.44C40.8298 196.86 40.3898 197.33 39.9698 197.83C39.5498 198.33 39.1598 198.84 38.8198 199.34C38.4798 199.84 38.2498 200.34 38.1198 200.82C40.5798 200.5 42.9898 199.89 45.3498 199.01C47.7098 198.12 49.8998 196.93 51.9098 195.44C52.1098 195.28 52.2698 195.17 52.3898 195.11C52.5098 195.05 52.6698 195.11 52.8698 195.26C52.9098 195.3 52.8598 195.42 52.7198 195.62C52.5798 195.82 52.3898 196.05 52.1498 196.32C51.9098 196.58 51.6498 196.84 51.3598 197.11C51.0798 197.37 50.8398 197.6 50.6298 197.81C50.0598 198.29 49.3098 198.81 48.3598 199.35C47.4098 199.89 46.3798 200.4 45.2698 200.86C44.1598 201.32 43.0398 201.7 41.9098 201.98C40.7798 202.26 39.7298 202.4 38.7598 202.4C37.9898 202.36 37.3798 202.02 36.9198 201.37C36.4598 200.73 36.3398 200.04 36.5898 199.31L36.5998 199.32ZM45.9098 189.46C46.4298 189.02 46.9598 188.57 47.4798 188.13C47.9998 187.69 48.5298 187.24 49.0498 186.8C49.1298 186.72 49.2498 186.64 49.4098 186.56C49.6098 186.4 49.8498 186.32 50.1398 186.32C50.7798 186.32 51.1498 186.7 51.2298 187.47C50.5398 187.99 49.8798 188.51 49.2298 189.01C48.5798 189.51 47.9198 190.05 47.2298 190.61C46.9098 190.85 46.6398 190.89 46.4398 190.73C45.9998 190.45 45.7498 190.13 45.7098 189.76C45.7098 189.6 45.7698 189.5 45.8898 189.46H45.9098Z" fill="#FEF9EC"/>
<path d="M45.25 202.22C45.25 202.1 45.35 201.9 45.55 201.61C45.75 201.33 45.98 201.05 46.25 200.76C46.51 200.48 46.76 200.22 47.01 199.97C47.26 199.72 47.41 199.55 47.49 199.43C48.62 198.34 49.74 197.26 50.85 196.19C51.96 195.12 53.08 194.04 54.21 192.95L55.78 191.38C56.14 191.06 56.51 191.06 56.87 191.38C57.43 191.78 57.64 192.29 57.48 192.89C57.16 193.01 56.94 193.13 56.81 193.25L53 196.88L52.94 196.94L52.88 197C52.88 197 52.86 197.08 52.82 197.12C52.94 197.04 53.04 196.99 53.12 196.97C53.2 196.95 53.28 196.92 53.36 196.88C54.05 196.48 54.73 196.09 55.42 195.73C56.11 195.37 56.79 195 57.48 194.64C57.8 194.48 58.12 194.4 58.45 194.4C59.3 194.4 59.84 194.9 60.08 195.91C60.16 196.31 60.25 196.65 60.35 196.91C60.45 197.17 60.72 197.28 61.17 197.24C62.26 197.16 63.31 197.03 64.32 196.85C65.33 196.67 66.36 196.3 67.41 195.73C67.57 195.65 67.7 195.54 67.8 195.4C67.9 195.26 68.01 195.23 68.13 195.31C68.33 195.47 68.24 195.79 67.86 196.28C67.48 196.76 67.08 197.11 66.68 197.31C65.95 197.67 65.13 197.98 64.2 198.22C63.27 198.46 62.41 198.64 61.6 198.76C61.32 198.8 61.03 198.82 60.75 198.82C60.47 198.82 60.19 198.74 59.93 198.58C59.67 198.42 59.44 198.14 59.23 197.73C59.03 197.33 58.87 196.76 58.75 196.04C58.1 196.36 57.37 196.76 56.54 197.22C55.71 197.68 54.87 198.17 54 198.67C53.13 199.17 52.3 199.68 51.49 200.18C50.68 200.68 49.98 201.16 49.37 201.6C48.97 201.88 48.57 202.16 48.19 202.42C47.81 202.68 47.39 202.93 46.95 203.18C46.63 203.38 46.26 203.37 45.86 203.15C45.46 202.93 45.25 202.62 45.25 202.21V202.22Z" fill="#FEF9EC"/>
<path d="M63.4499 199.8C63.8099 198.99 64.4499 198.14 65.3599 197.23C66.2699 196.32 67.2699 195.49 68.3799 194.72C69.4899 193.95 70.6299 193.32 71.7999 192.81C72.9699 192.31 74.0199 192.05 74.9499 192.05C75.6399 192.09 76.2899 192.35 76.9199 192.84C77.5399 193.32 77.8599 193.95 77.8599 194.72C77.8199 195.04 77.7699 195.36 77.7099 195.66C77.6499 195.96 77.5799 196.26 77.4999 196.54C77.3799 196.86 77.1799 196.94 76.8899 196.78C76.2899 196.46 76.0399 195.97 76.1599 195.33C76.1999 195.05 76.2299 194.79 76.2499 194.54C76.2699 194.3 76.2799 194.06 76.2799 193.81C76.0399 193.73 75.6799 193.73 75.1899 193.81C73.6599 194.25 72.0999 194.95 70.5299 195.9C68.9599 196.85 67.6499 197.93 66.5999 199.14C66.7199 199.06 66.8199 199.01 66.8999 198.99C66.9799 198.97 67.0599 198.94 67.1399 198.9C68.1499 198.46 69.1499 198.01 70.1299 197.57C71.1199 197.13 72.1199 196.68 73.1199 196.24C73.1999 196.2 73.2799 196.17 73.3599 196.15C73.4399 196.13 73.5199 196.1 73.5999 196.06C74.5699 195.7 75.3299 195.92 75.8999 196.73C76.1399 197.09 76.1999 197.46 76.0799 197.82C75.9199 198.3 75.7799 198.78 75.6599 199.24C75.5399 199.7 75.4399 200.2 75.3599 200.72C75.6799 200.8 75.9799 200.82 76.2699 200.78C76.5499 200.74 76.8299 200.68 77.1199 200.6C77.7599 200.48 78.6399 200.2 79.7499 199.75C80.8599 199.31 81.9799 198.79 83.1099 198.21C84.2399 197.63 85.2699 197.04 86.1999 196.46C87.1299 195.88 87.7299 195.4 88.0099 195.04C88.2499 195.12 88.3099 195.33 88.1899 195.67C88.0699 196.01 87.9299 196.3 87.7699 196.55C87.5299 196.95 86.9499 197.47 86.0499 198.09C85.1399 198.72 84.1299 199.33 83.0299 199.94C81.9199 200.54 80.7899 201.08 79.6399 201.54C78.4899 202 77.5299 202.24 76.7699 202.24C75.7999 202.28 74.9599 201.88 74.2299 201.03C73.7499 200.51 73.5999 199.8 73.8099 198.91C73.8499 198.75 73.8799 198.61 73.8999 198.49C73.9199 198.37 73.9499 198.21 73.9899 198.01C73.8299 198.09 73.6899 198.14 73.5699 198.16C73.4499 198.18 73.3499 198.23 73.2699 198.31C72.1399 198.79 71.0299 199.28 69.9399 199.76C68.8499 200.24 67.7399 200.73 66.6099 201.21C66.3699 201.33 66.0099 201.47 65.5199 201.63C65.0799 201.75 64.6399 201.69 64.2199 201.45C63.7999 201.21 63.5199 200.89 63.3999 200.48C63.3599 200.32 63.3799 200.1 63.4599 199.81L63.4499 199.8Z" fill="#FEF9EC"/>
<path d="M84.6898 198.41C85.6198 197.04 86.9398 195.8 88.6498 194.69C90.3598 193.58 92.0298 192.83 93.6398 192.42C94.8098 192.14 95.7998 192.48 96.5998 193.45C96.7598 193.69 96.8998 193.87 97.0198 193.99C97.2598 193.87 97.3998 193.79 97.4398 193.75C99.4198 192.5 101.36 191.24 103.28 189.97C105.2 188.7 107.12 187.4 109.06 186.07C109.18 185.99 109.3 185.91 109.42 185.83C109.54 185.75 109.66 185.67 109.78 185.59C109.94 185.51 110.09 185.42 110.23 185.32C110.37 185.22 110.54 185.21 110.74 185.29C111.18 185.53 111.49 185.89 111.65 186.38C111.69 186.58 111.61 186.78 111.41 186.98C110.36 187.67 109.12 188.53 107.69 189.58C106.26 190.63 104.86 191.76 103.49 192.97C102.12 194.18 100.89 195.44 99.7998 196.75C98.7098 198.06 97.9898 199.34 97.6198 200.59C98.3498 200.51 99.2498 200.31 100.34 199.99C101.43 199.67 102.56 199.28 103.73 198.84C104.9 198.4 106.01 197.94 107.06 197.48C108.11 197.02 108.94 196.62 109.54 196.3C109.94 196.06 110.25 195.87 110.45 195.73C110.65 195.59 110.97 195.4 111.42 195.16C111.5 195.12 111.54 195.29 111.54 195.67C111.54 196.05 111.42 196.37 111.18 196.61C110.82 196.93 110.13 197.38 109.12 197.94C108.11 198.51 106.99 199.08 105.76 199.66C104.53 200.24 103.29 200.77 102.04 201.23C100.79 201.69 99.7398 201.99 98.8898 202.11C98.4898 202.19 98.0898 202.15 97.7098 201.99C97.3298 201.83 96.9898 201.6 96.7098 201.29C96.4298 200.99 96.2298 200.64 96.1098 200.23C95.9898 199.83 95.9898 199.42 96.1098 199.02C96.1898 198.74 96.2798 198.48 96.3798 198.23C96.4798 197.99 96.5698 197.71 96.6498 197.38C96.5298 197.3 96.4198 197.23 96.3198 197.17C96.2198 197.11 96.0898 197.04 95.9298 196.96C94.7998 197.61 93.6698 198.22 92.5398 198.8C91.4098 199.39 90.2198 199.9 88.9698 200.34C88.6098 200.42 88.2498 200.5 87.9098 200.58C87.5698 200.66 87.2098 200.74 86.8498 200.82C85.7198 200.94 84.9498 200.46 84.5498 199.37C84.4698 198.97 84.5098 198.64 84.6698 198.4L84.6898 198.41ZM95.3898 195.02C95.6298 194.9 95.7098 194.62 95.6298 194.17C95.0298 194.21 94.3298 194.38 93.5398 194.68C92.7498 194.98 91.9798 195.35 91.2098 195.77C90.4398 196.19 89.7198 196.67 89.0298 197.19C88.3398 197.71 87.7998 198.2 87.3998 198.64C87.8398 198.64 88.4298 198.49 89.1498 198.19C89.8698 197.89 90.6298 197.54 91.4198 197.13C92.2098 196.73 92.9598 196.33 93.6898 195.95C94.4198 195.57 94.9798 195.25 95.3798 195.01L95.3898 195.02ZM97.2098 196.65L97.5698 196.11C97.3698 196.19 97.2498 196.25 97.2098 196.29C97.1698 196.33 97.1698 196.45 97.2098 196.65Z" fill="#FEF9EC"/>
<path d="M106.52 199.8C106.88 198.99 107.52 198.14 108.43 197.23C109.34 196.32 110.34 195.49 111.45 194.72C112.56 193.95 113.7 193.32 114.87 192.81C116.04 192.31 117.09 192.05 118.02 192.05C118.71 192.09 119.36 192.35 119.99 192.84C120.61 193.32 120.93 193.95 120.93 194.72C120.89 195.04 120.84 195.36 120.78 195.66C120.72 195.96 120.65 196.26 120.57 196.54C120.45 196.86 120.25 196.94 119.96 196.78C119.36 196.46 119.11 195.97 119.23 195.33C119.27 195.05 119.3 194.79 119.32 194.54C119.34 194.3 119.35 194.06 119.35 193.81C119.11 193.73 118.75 193.73 118.26 193.81C116.73 194.25 115.17 194.95 113.6 195.9C112.03 196.85 110.72 197.93 109.67 199.14C109.79 199.06 109.89 199.01 109.97 198.99C110.05 198.97 110.13 198.94 110.21 198.9C111.22 198.46 112.22 198.01 113.2 197.57C114.19 197.13 115.19 196.68 116.19 196.24C116.27 196.2 116.35 196.17 116.43 196.15C116.51 196.13 116.59 196.1 116.67 196.06C117.64 195.7 118.4 195.92 118.97 196.73C119.21 197.09 119.27 197.46 119.15 197.82C118.99 198.3 118.85 198.78 118.73 199.24C118.61 199.7 118.51 200.2 118.43 200.72C118.75 200.8 119.05 200.82 119.34 200.78C119.62 200.74 119.9 200.68 120.19 200.6C120.83 200.48 121.71 200.2 122.82 199.75C123.93 199.31 125.05 198.79 126.18 198.21C127.31 197.63 128.34 197.04 129.27 196.46C130.2 195.88 130.8 195.4 131.08 195.04C131.32 195.12 131.38 195.33 131.26 195.67C131.14 196.01 131 196.3 130.84 196.55C130.6 196.95 130.02 197.47 129.12 198.09C128.21 198.72 127.2 199.33 126.1 199.94C124.99 200.54 123.86 201.08 122.71 201.54C121.56 202 120.6 202.24 119.84 202.24C118.87 202.28 118.03 201.88 117.3 201.03C116.82 200.51 116.67 199.8 116.88 198.91C116.92 198.75 116.95 198.61 116.97 198.49C116.99 198.37 117.02 198.21 117.06 198.01C116.9 198.09 116.76 198.14 116.64 198.16C116.52 198.18 116.42 198.23 116.34 198.31C115.21 198.79 114.1 199.28 113.01 199.76C111.92 200.24 110.81 200.73 109.68 201.21C109.44 201.33 109.08 201.47 108.59 201.63C108.15 201.75 107.71 201.69 107.29 201.45C106.87 201.21 106.59 200.89 106.47 200.48C106.43 200.32 106.45 200.1 106.53 199.81L106.52 199.8Z" fill="#FEF9EC"/>
<path d="M146.44 209.84C147.05 209.32 147.65 208.81 148.25 208.33C148.86 207.85 149.44 207.34 150 206.82C152.78 204.48 155.54 202.16 158.29 199.86C161.03 197.56 163.79 195.24 166.58 192.9C167.27 192.34 167.86 191.43 168.36 190.18C168.86 188.93 169.16 187.86 169.24 186.97C169.32 186.16 169 185.58 168.27 185.22C167.7 184.9 167.14 184.69 166.58 184.59C166.02 184.49 165.43 184.42 164.83 184.38C163.7 184.3 162.57 184.31 161.44 184.41C160.31 184.51 159.18 184.64 158.05 184.8C156.52 185 155 185.27 153.48 185.62C151.97 185.96 150.44 186.3 148.91 186.62C148.83 186.62 148.77 186.63 148.73 186.65C148.69 186.67 148.65 186.68 148.61 186.68C148.09 186.76 147.66 186.66 147.34 186.38C147.02 186.1 146.86 185.69 146.86 185.17C146.86 184.81 146.98 184.57 147.22 184.44C149.92 182.63 153.25 181.08 157.2 179.81C161.15 178.54 165.31 177.49 169.66 176.66C174.02 175.83 178.35 175.19 182.67 174.72C186.98 174.26 190.86 173.94 194.28 173.78C195.85 173.7 197.43 173.62 199 173.54C200.57 173.46 202.15 173.46 203.72 173.54C204.69 173.58 205.69 173.64 206.71 173.72C207.74 173.8 208.72 174 209.64 174.32C210.37 174.64 210.79 175.17 210.91 175.89C211.15 176.9 210.91 177.81 210.18 178.61C209.86 178.97 209.61 178.95 209.45 178.55C209.37 178.35 209.32 178.15 209.3 177.94C209.28 177.74 209.25 177.54 209.21 177.34C209.21 177.26 209.21 177.19 209.24 177.13C209.26 177.07 209.27 177 209.27 176.92C208.18 176.72 207.23 176.62 206.43 176.62C202.56 176.66 198.38 176.76 193.91 176.92C189.43 177.08 184.94 177.39 180.42 177.86C175.9 178.32 171.48 178.97 167.14 179.8C162.8 180.63 158.82 181.75 155.19 183.16C155.19 183.2 155.17 183.24 155.13 183.28C156.3 183.08 157.46 182.92 158.61 182.8C159.76 182.68 160.92 182.58 162.09 182.5C162.78 182.46 163.47 182.46 164.18 182.5C164.89 182.54 165.58 182.64 166.27 182.8C166.47 182.88 166.68 182.95 166.91 183.01C167.13 183.07 167.34 183.14 167.54 183.22C168.59 183.66 169.35 184.37 169.84 185.34C170.33 186.31 170.53 187.24 170.45 188.12C170.41 188.44 170.37 188.75 170.33 189.03C170.29 189.31 170.23 189.62 170.15 189.94C170.31 189.82 170.49 189.66 170.69 189.46C172.71 187.81 174.7 186.17 176.68 184.56C178.66 182.95 180.63 181.33 182.61 179.72C182.81 179.56 182.99 179.41 183.15 179.27C183.31 179.13 183.49 179 183.69 178.88C184.01 178.68 184.29 178.7 184.54 178.94C184.62 179.06 184.71 179.19 184.81 179.33C184.91 179.47 185 179.62 185.08 179.78C185.24 180.14 185.18 180.47 184.9 180.75C184.5 181.07 184.1 181.43 183.72 181.81C183.34 182.19 182.94 182.55 182.54 182.87C178.18 186.62 173.85 190.35 169.53 194.06C165.21 197.77 160.88 201.5 156.52 205.25L148.72 211.78L148.54 211.96C148.14 212.36 147.69 212.38 147.21 212.02C146.73 211.62 146.4 211.15 146.24 210.63C146.12 210.31 146.18 210.05 146.42 209.84H146.44Z" fill="#FEF9EC"/>
<path d="M168.16 202.22C168.16 202.1 168.26 201.9 168.46 201.61C168.66 201.33 168.89 201.05 169.16 200.76C169.42 200.48 169.67 200.22 169.92 199.97C170.17 199.72 170.32 199.55 170.4 199.43C171.53 198.34 172.65 197.26 173.76 196.19C174.87 195.12 175.99 194.04 177.12 192.95L178.69 191.38C179.05 191.06 179.42 191.06 179.78 191.38C180.34 191.78 180.55 192.29 180.39 192.89C180.07 193.01 179.85 193.13 179.72 193.25L175.91 196.88L175.85 196.94L175.79 197C175.79 197 175.77 197.08 175.73 197.12C175.85 197.04 175.95 196.99 176.03 196.97C176.11 196.95 176.19 196.92 176.27 196.88C176.96 196.48 177.64 196.09 178.33 195.73C179.02 195.37 179.7 195 180.39 194.64C180.71 194.48 181.03 194.4 181.36 194.4C182.21 194.4 182.75 194.9 182.99 195.91C183.07 196.31 183.16 196.65 183.26 196.91C183.36 197.17 183.63 197.28 184.08 197.24C185.17 197.16 186.22 197.03 187.23 196.85C188.24 196.67 189.27 196.3 190.32 195.73C190.48 195.65 190.61 195.54 190.71 195.4C190.81 195.26 190.92 195.23 191.04 195.31C191.24 195.47 191.15 195.79 190.77 196.28C190.39 196.76 189.99 197.11 189.59 197.31C188.86 197.67 188.04 197.98 187.11 198.22C186.18 198.46 185.32 198.64 184.51 198.76C184.23 198.8 183.94 198.82 183.66 198.82C183.38 198.82 183.1 198.74 182.84 198.58C182.58 198.42 182.35 198.14 182.14 197.73C181.94 197.33 181.78 196.76 181.66 196.04C181.01 196.36 180.28 196.76 179.45 197.22C178.62 197.68 177.78 198.17 176.91 198.67C176.04 199.17 175.21 199.68 174.4 200.18C173.59 200.68 172.89 201.16 172.28 201.6C171.88 201.88 171.48 202.16 171.1 202.42C170.72 202.68 170.3 202.93 169.86 203.18C169.54 203.38 169.17 203.37 168.77 203.15C168.37 202.93 168.16 202.62 168.16 202.21V202.22Z" fill="#FEF9EC"/>
<path d="M186.37 199.8C186.73 198.99 187.37 198.14 188.28 197.23C189.19 196.32 190.19 195.49 191.3 194.72C192.41 193.95 193.55 193.32 194.72 192.81C195.89 192.31 196.94 192.05 197.87 192.05C198.56 192.09 199.21 192.35 199.84 192.84C200.46 193.32 200.78 193.95 200.78 194.72C200.74 195.04 200.69 195.36 200.63 195.66C200.57 195.96 200.5 196.26 200.42 196.54C200.3 196.86 200.1 196.94 199.81 196.78C199.21 196.46 198.96 195.97 199.08 195.33C199.12 195.05 199.15 194.79 199.17 194.54C199.19 194.3 199.2 194.06 199.2 193.81C198.96 193.73 198.6 193.73 198.11 193.81C196.58 194.25 195.02 194.95 193.45 195.9C191.88 196.85 190.57 197.93 189.52 199.14C189.64 199.06 189.74 199.01 189.82 198.99C189.9 198.97 189.98 198.94 190.06 198.9C191.07 198.46 192.07 198.01 193.05 197.57C194.04 197.13 195.04 196.68 196.04 196.24C196.12 196.2 196.2 196.17 196.28 196.15C196.36 196.13 196.44 196.1 196.52 196.06C197.49 195.7 198.25 195.92 198.82 196.73C199.06 197.09 199.12 197.46 199 197.82C198.84 198.3 198.7 198.78 198.58 199.24C198.46 199.7 198.36 200.2 198.28 200.72C198.6 200.8 198.9 200.82 199.19 200.78C199.47 200.74 199.75 200.68 200.04 200.6C200.68 200.48 201.56 200.2 202.67 199.75C203.78 199.31 204.9 198.79 206.03 198.21C207.16 197.63 208.19 197.04 209.12 196.46C210.05 195.88 210.65 195.4 210.93 195.04C211.17 195.12 211.23 195.33 211.11 195.67C210.99 196.01 210.85 196.3 210.69 196.55C210.45 196.95 209.87 197.47 208.97 198.09C208.06 198.72 207.05 199.33 205.95 199.94C204.84 200.54 203.71 201.08 202.56 201.54C201.41 202 200.45 202.24 199.69 202.24C198.72 202.28 197.88 201.88 197.15 201.03C196.67 200.51 196.52 199.8 196.73 198.91C196.77 198.75 196.8 198.61 196.82 198.49C196.84 198.37 196.87 198.21 196.91 198.01C196.75 198.09 196.61 198.14 196.49 198.16C196.37 198.18 196.27 198.23 196.19 198.31C195.06 198.79 193.95 199.28 192.86 199.76C191.77 200.24 190.66 200.73 189.53 201.21C189.29 201.33 188.93 201.47 188.44 201.63C188 201.75 187.56 201.69 187.14 201.45C186.72 201.21 186.44 200.89 186.32 200.48C186.28 200.32 186.3 200.1 186.38 199.81L186.37 199.8Z" fill="#FEF9EC"/>
<path d="M206.09 200.95C206.66 199.82 207.34 198.79 208.15 197.86C208.96 196.93 209.82 196.03 210.75 195.14C211.19 194.7 211.66 194.25 212.14 193.81C212.62 193.37 213.11 192.92 213.59 192.48C213.75 192.36 213.91 192.25 214.07 192.15C214.23 192.05 214.43 192.04 214.67 192.12C215.19 192.36 215.54 192.75 215.7 193.27C215.78 193.43 215.72 193.55 215.52 193.63C215.2 193.75 214.66 194.15 213.92 194.84C213.17 195.53 212.4 196.31 211.59 197.2C210.78 198.09 210.04 198.94 209.35 199.77C208.66 200.6 208.24 201.19 208.08 201.55C211.1 200.62 213.95 199.31 216.61 197.62C218.26 196.57 219.9 195.52 221.51 194.47C223.12 193.42 224.72 192.33 226.29 191.2C226.85 190.8 227.27 190.4 227.53 190.02C227.79 189.64 227.96 189.49 228.04 189.57C228.4 189.89 228.52 190.33 228.4 190.87C228.28 191.41 227.94 191.91 227.37 192.35C226.24 193.28 224.91 194.32 223.38 195.47C221.85 196.62 220.23 197.72 218.54 198.77C216.85 199.82 215.15 200.77 213.46 201.61C211.77 202.46 210.19 203.04 208.74 203.36C207.77 203.6 206.97 203.3 206.32 202.45C205.96 201.93 205.88 201.42 206.08 200.94L206.09 200.95Z" fill="#FEF9EC"/>
<path d="M225.38 198.05C225.9 196.68 226.9 195.5 228.37 194.51C229.84 193.52 231.32 193.03 232.82 193.03C233.26 193.07 233.64 193.21 233.94 193.45C234.24 193.69 234.49 193.99 234.7 194.36C234.94 194.76 234.92 195.17 234.64 195.57C233.59 196.98 232.28 197.75 230.71 197.87C230.11 197.95 229.58 197.77 229.14 197.33C229.06 197.25 228.98 197.19 228.9 197.15C228.82 197.11 228.74 197.05 228.66 196.97C228.01 197.57 227.53 198.21 227.21 198.88C226.89 199.55 226.79 200.1 226.91 200.54C227.27 200.66 227.65 200.7 228.03 200.66C228.41 200.62 228.79 200.56 229.15 200.48C230.12 200.32 231.16 200.08 232.27 199.75C233.38 199.43 234.5 199.05 235.63 198.63C236.76 198.21 237.86 197.75 238.93 197.27C240 196.79 240.98 196.3 241.86 195.82C242.14 195.66 242.42 195.48 242.71 195.28C242.87 195.16 243.03 195.04 243.19 194.92C243.31 195 243.42 195.18 243.52 195.46C243.62 195.74 243.45 196.07 243.01 196.43C242.41 196.91 241.55 197.46 240.44 198.06C239.33 198.67 238.12 199.25 236.81 199.81C235.5 200.38 234.2 200.88 232.91 201.32C231.62 201.76 230.51 202.07 229.58 202.23C228.97 202.31 228.39 202.29 227.83 202.17C227.26 202.05 226.74 201.77 226.26 201.32C225.25 200.43 224.97 199.34 225.41 198.05H225.38ZM229.74 196.41C230.3 196.49 230.92 196.34 231.58 195.96C232.25 195.58 232.74 195.12 233.06 194.6C232.01 194.64 231.22 194.9 230.67 195.39C230.12 195.88 229.81 196.22 229.73 196.42L229.74 196.41Z" fill="#FEF9EC"/>
<path d="M238.33 200.53C238.49 200.21 238.66 199.89 238.84 199.59C239.02 199.29 239.21 199.02 239.41 198.77C241.63 196.19 243.99 193.73 246.49 191.39C248.99 189.05 251.53 186.73 254.11 184.43C254.51 184.11 254.8 183.95 254.96 183.95C255.2 183.95 255.44 184.11 255.69 184.43C255.73 184.51 255.76 184.59 255.78 184.67C255.8 184.75 255.83 184.83 255.87 184.91C255.95 185.11 255.87 185.29 255.63 185.45C255.47 185.53 255.06 185.86 254.39 186.45C253.72 187.04 252.93 187.76 252 188.63C251.07 189.5 250.08 190.45 249.04 191.5C247.99 192.55 246.97 193.57 245.99 194.55C245 195.54 244.1 196.45 243.3 197.27C242.49 198.1 241.89 198.71 241.49 199.12C240.72 199.89 240.12 200.77 239.68 201.78C240.89 201.58 242.18 201.27 243.55 200.84C244.92 200.42 246.3 199.91 247.69 199.33C249.08 198.75 250.44 198.11 251.77 197.42C253.1 196.73 254.31 196.05 255.4 195.36C255.88 195.08 256.17 194.98 256.25 195.06C256.37 195.18 256.41 195.35 256.37 195.57C256.33 195.79 256.13 196.04 255.76 196.33C255.03 196.9 253.99 197.57 252.61 198.36C251.24 199.15 249.79 199.89 248.25 200.6C246.72 201.31 245.24 201.91 243.8 202.41C242.37 202.91 241.23 203.17 240.38 203.17C239.45 203.17 238.77 202.81 238.32 202.08C238 201.56 238 201.03 238.32 200.51L238.33 200.53Z" fill="#FEF9EC"/>
<path d="M61.9398 225.97C62.1598 225.97 62.3698 225.94 62.5798 225.88C62.7898 225.82 62.9798 225.73 63.1498 225.62C63.3198 225.5 63.4498 225.36 63.5498 225.19C63.6498 225.02 63.6998 224.82 63.6998 224.6C63.6998 224.33 63.6298 224.09 63.4898 223.89C63.3498 223.69 63.1698 223.49 62.9498 223.32C62.7298 223.15 62.4698 222.98 62.1798 222.83C61.8898 222.68 61.5998 222.52 61.2998 222.37C60.9998 222.22 60.7098 222.06 60.4198 221.89C60.1298 221.72 59.8798 221.53 59.6498 221.32C59.4298 221.11 59.2398 220.88 59.1098 220.62C58.9798 220.36 58.8998 220.07 58.8998 219.73C58.8998 219.39 58.9598 219.09 59.0898 218.8C59.2198 218.51 59.3998 218.27 59.6398 218.06C59.8798 217.85 60.1798 217.69 60.5298 217.57C60.8798 217.45 61.2898 217.39 61.7498 217.39C62.1598 217.39 62.5298 217.43 62.8598 217.52C63.1898 217.61 63.4698 217.74 63.7198 217.91C63.9698 218.08 64.1698 218.29 64.3498 218.54C64.5198 218.79 64.6598 219.08 64.7698 219.41L64.0198 219.75C63.9298 219.48 63.8198 219.24 63.6798 219.02C63.5398 218.8 63.3798 218.61 63.1898 218.45C62.9998 218.29 62.7798 218.17 62.5298 218.08C62.2798 217.99 61.9998 217.95 61.6898 217.95C61.4098 217.95 61.1698 217.99 60.9698 218.07C60.7598 218.15 60.5898 218.25 60.4498 218.37C60.3098 218.5 60.2098 218.64 60.1398 218.79C60.0698 218.95 60.0398 219.11 60.0398 219.27C60.0398 219.5 60.1098 219.71 60.2498 219.9C60.3898 220.09 60.5798 220.27 60.8098 220.44C61.0398 220.61 61.3098 220.77 61.5998 220.93C61.8998 221.09 62.1998 221.25 62.5098 221.41C62.8198 221.57 63.1198 221.74 63.4198 221.92C63.7198 222.1 63.9798 222.29 64.2098 222.5C64.4398 222.71 64.6298 222.94 64.7698 223.19C64.9098 223.44 64.9798 223.72 64.9798 224.02C64.9798 224.37 64.9098 224.69 64.7798 225C64.6498 225.31 64.4498 225.57 64.1898 225.8C63.9298 226.03 63.5998 226.21 63.2098 226.34C62.8198 226.47 62.3598 226.54 61.8498 226.54C61.4298 226.54 61.0498 226.49 60.7198 226.4C60.3898 226.31 60.0998 226.17 59.8498 226C59.5998 225.82 59.3798 225.61 59.1998 225.36C59.0198 225.11 58.8698 224.82 58.7598 224.49L59.5398 224.17C59.6298 224.46 59.7598 224.71 59.9098 224.93C60.0698 225.15 60.2498 225.34 60.4498 225.5C60.6598 225.66 60.8898 225.78 61.1398 225.86C61.3898 225.94 61.6598 225.98 61.9498 225.98L61.9398 225.97Z" fill="#FEF9EC"/>
<path d="M69.72 217.58H72.49C72.95 217.58 73.37 217.64 73.77 217.74C74.17 217.85 74.52 218.01 74.81 218.22C75.11 218.43 75.34 218.69 75.51 219C75.68 219.31 75.76 219.66 75.76 220.06C75.76 220.46 75.68 220.8 75.51 221.09C75.35 221.38 75.13 221.63 74.86 221.82C74.59 222.01 74.28 222.16 73.94 222.25C73.6 222.34 73.25 222.39 72.89 222.39C72.74 222.39 72.58 222.39 72.41 222.38C72.24 222.38 72.08 222.36 71.93 222.35C71.78 222.34 71.63 222.32 71.5 222.3C71.37 222.28 71.26 222.27 71.18 222.25V226.29H69.71V217.55L69.72 217.58ZM71.18 221.79C71.35 221.85 71.53 221.89 71.71 221.93C71.9 221.97 72.09 221.99 72.29 221.99C72.61 221.99 72.88 221.94 73.12 221.85C73.36 221.76 73.55 221.63 73.71 221.46C73.87 221.3 73.99 221.1 74.06 220.88C74.14 220.66 74.18 220.42 74.18 220.17C74.18 219.88 74.13 219.61 74.03 219.37C73.93 219.13 73.79 218.93 73.61 218.76C73.43 218.59 73.22 218.46 72.98 218.37C72.74 218.28 72.48 218.23 72.21 218.23H71.17V221.79H71.18Z" fill="#FEF9EC"/>
<path d="M82.5099 217.39L86.6199 226.32H85.1199L83.7899 223.41H80.0399L78.6599 226.32H77.9199L82.1299 217.39H82.4999H82.5099ZM80.3099 222.84H83.5299L81.9399 219.38L80.3099 222.84Z" fill="#FEF9EC"/>
<path d="M90.5396 217.58H92.0096V226.32H90.5396V217.58Z" fill="#FEF9EC"/>
<path d="M97.0796 217.58H97.8996L103.63 223.97H103.7V217.58H104.35V226.52H104.01L97.8096 219.42H97.7596V226.32H97.0896V217.58H97.0796Z" fill="#FEF9EC"/>
<path d="M116.35 221.61C116.3 221.92 116.23 222.2 116.16 222.45C116.08 222.7 115.99 222.93 115.88 223.15C115.77 223.37 115.65 223.58 115.5 223.79C115.36 224 115.2 224.21 115.02 224.44C115.36 224.78 115.68 225.05 115.98 225.25C116.28 225.45 116.56 225.55 116.81 225.55C117.14 225.55 117.42 225.49 117.65 225.36C117.88 225.23 118.07 225 118.21 224.67L118.46 224.76C118.4 225.05 118.31 225.3 118.18 225.52C118.05 225.74 117.89 225.93 117.7 226.08C117.51 226.23 117.3 226.35 117.05 226.42C116.81 226.5 116.55 226.54 116.27 226.54C115.91 226.54 115.54 226.44 115.16 226.23C114.78 226.02 114.41 225.75 114.04 225.41C113.61 225.74 113.14 226.02 112.63 226.22C112.12 226.42 111.57 226.53 110.99 226.53C110.58 226.53 110.23 226.48 109.94 226.39C109.65 226.3 109.41 226.17 109.23 226C109.05 225.83 108.91 225.63 108.82 225.4C108.73 225.17 108.69 224.91 108.69 224.63C108.69 224.23 108.77 223.88 108.92 223.57C109.07 223.26 109.27 222.98 109.52 222.74C109.77 222.49 110.05 222.28 110.37 222.08C110.69 221.88 111.01 221.71 111.34 221.55C111.16 221.16 111.01 220.81 110.9 220.48C110.79 220.16 110.74 219.88 110.74 219.66C110.74 219.37 110.79 219.09 110.88 218.82C110.97 218.55 111.12 218.31 111.31 218.09C111.5 217.88 111.74 217.71 112.02 217.58C112.31 217.45 112.64 217.39 113.01 217.39C113.29 217.39 113.56 217.43 113.8 217.51C114.05 217.59 114.26 217.71 114.45 217.87C114.63 218.03 114.78 218.22 114.89 218.44C115 218.66 115.05 218.92 115.05 219.21C115.05 219.5 114.98 219.75 114.85 219.96C114.72 220.17 114.54 220.37 114.32 220.54C114.1 220.71 113.85 220.87 113.57 221.01C113.29 221.15 113.01 221.29 112.72 221.43C112.95 221.86 113.22 222.3 113.55 222.72C113.88 223.14 114.22 223.57 114.59 223.98C115.02 223.49 115.35 223.03 115.57 222.62C115.79 222.2 115.93 221.84 116 221.53L116.33 221.62L116.35 221.61ZM111.57 221.99C111.35 222.12 111.15 222.26 110.96 222.41C110.77 222.56 110.61 222.73 110.48 222.9C110.34 223.07 110.24 223.26 110.16 223.45C110.08 223.64 110.04 223.85 110.04 224.06C110.04 224.3 110.08 224.52 110.16 224.73C110.24 224.94 110.35 225.12 110.49 225.27C110.63 225.42 110.8 225.54 111.01 225.63C111.21 225.72 111.44 225.76 111.7 225.76C112.05 225.76 112.38 225.68 112.69 225.53C113 225.38 113.3 225.19 113.59 224.96C113.39 224.74 113.2 224.52 113.02 224.27C112.84 224.03 112.66 223.78 112.5 223.53C112.33 223.28 112.17 223.02 112.02 222.76C111.87 222.5 111.72 222.24 111.58 221.99H111.57ZM112.52 221.02C112.75 220.9 112.96 220.78 113.16 220.65C113.36 220.52 113.53 220.39 113.68 220.24C113.83 220.09 113.94 219.93 114.03 219.75C114.11 219.57 114.16 219.38 114.16 219.16C114.16 218.94 114.13 218.76 114.08 218.6C114.02 218.44 113.95 218.29 113.86 218.18C113.77 218.06 113.66 217.97 113.53 217.91C113.41 217.85 113.27 217.82 113.12 217.82C112.96 217.82 112.81 217.86 112.67 217.94C112.53 218.02 112.42 218.13 112.32 218.27C112.22 218.4 112.14 218.55 112.09 218.72C112.04 218.89 112 219.05 112 219.21C112 219.47 112.05 219.76 112.14 220.08C112.23 220.4 112.37 220.71 112.53 221.02H112.52Z" fill="#FEF9EC"/>
<path d="M122.4 217.58H125.17C125.63 217.58 126.05 217.64 126.45 217.74C126.85 217.85 127.2 218.01 127.49 218.22C127.79 218.43 128.02 218.69 128.19 219C128.36 219.31 128.44 219.66 128.44 220.06C128.44 220.46 128.36 220.8 128.19 221.09C128.03 221.38 127.81 221.63 127.54 221.82C127.27 222.01 126.96 222.16 126.62 222.25C126.28 222.34 125.93 222.39 125.57 222.39C125.42 222.39 125.26 222.39 125.09 222.38C124.92 222.38 124.76 222.36 124.61 222.35C124.46 222.34 124.31 222.32 124.18 222.3C124.05 222.28 123.94 222.27 123.86 222.25V226.29H122.39V217.55L122.4 217.58ZM123.87 221.79C124.04 221.85 124.22 221.89 124.4 221.93C124.59 221.97 124.78 221.99 124.98 221.99C125.3 221.99 125.57 221.94 125.81 221.85C126.05 221.76 126.24 221.63 126.4 221.46C126.56 221.3 126.68 221.1 126.75 220.88C126.83 220.66 126.87 220.42 126.87 220.17C126.87 219.88 126.82 219.61 126.72 219.37C126.62 219.13 126.48 218.93 126.3 218.76C126.12 218.59 125.91 218.46 125.67 218.37C125.43 218.28 125.17 218.23 124.9 218.23H123.86V221.79H123.87Z" fill="#FEF9EC"/>
<path d="M137.32 226.52C136.64 226.52 136.01 226.4 135.43 226.16C134.84 225.92 134.33 225.59 133.9 225.17C133.47 224.75 133.13 224.26 132.88 223.7C132.63 223.14 132.51 222.54 132.51 221.9C132.51 221.48 132.57 221.08 132.68 220.69C132.79 220.3 132.95 219.94 133.16 219.61C133.37 219.28 133.62 218.97 133.91 218.7C134.2 218.43 134.53 218.19 134.88 217.99C135.23 217.79 135.62 217.64 136.03 217.54C136.44 217.43 136.88 217.38 137.33 217.38C137.78 217.38 138.22 217.43 138.63 217.54C139.04 217.65 139.43 217.8 139.79 217.99C140.15 218.18 140.47 218.42 140.76 218.7C141.05 218.98 141.3 219.28 141.51 219.61C141.72 219.94 141.88 220.3 141.99 220.69C142.1 221.08 142.16 221.48 142.16 221.9C142.16 222.32 142.1 222.73 141.99 223.12C141.88 223.51 141.72 223.88 141.51 224.22C141.3 224.56 141.05 224.87 140.76 225.16C140.47 225.45 140.15 225.68 139.79 225.88C139.43 226.08 139.05 226.24 138.63 226.35C138.22 226.46 137.78 226.51 137.33 226.51L137.32 226.52ZM137.32 226.09C137.82 226.09 138.26 225.99 138.65 225.78C139.03 225.57 139.36 225.28 139.62 224.91C139.88 224.54 140.08 224.1 140.22 223.59C140.35 223.08 140.42 222.52 140.42 221.92C140.42 221.32 140.35 220.77 140.22 220.27C140.09 219.77 139.89 219.34 139.62 218.98C139.36 218.62 139.03 218.34 138.65 218.14C138.27 217.94 137.82 217.84 137.32 217.84C136.82 217.84 136.36 217.94 135.98 218.14C135.6 218.34 135.27 218.62 135.01 218.98C134.75 219.34 134.55 219.77 134.42 220.27C134.29 220.77 134.22 221.32 134.22 221.92C134.22 222.52 134.29 223.08 134.42 223.59C134.55 224.1 134.75 224.54 135.01 224.91C135.27 225.28 135.59 225.57 135.98 225.78C136.36 225.99 136.81 226.09 137.32 226.09Z" fill="#FEF9EC"/>
<path d="M146.82 217.58H149.85C150.37 217.58 150.83 217.64 151.23 217.75C151.63 217.86 151.95 218.02 152.22 218.22C152.48 218.42 152.68 218.66 152.82 218.94C152.95 219.22 153.02 219.52 153.02 219.85C153.02 220.12 152.97 220.38 152.86 220.61C152.76 220.85 152.61 221.06 152.43 221.25C152.24 221.44 152.02 221.61 151.75 221.74C151.49 221.88 151.2 221.99 150.88 222.07L154.06 226.31H152.35L149.31 222.21H148.28V226.31H146.81V217.57L146.82 217.58ZM148.29 221.77H149.14C149.47 221.77 149.77 221.73 150.05 221.64C150.33 221.55 150.57 221.43 150.77 221.27C150.97 221.11 151.13 220.92 151.25 220.69C151.36 220.46 151.42 220.2 151.42 219.92C151.42 219.66 151.37 219.41 151.28 219.19C151.19 218.97 151.06 218.78 150.9 218.63C150.74 218.47 150.54 218.35 150.31 218.26C150.08 218.17 149.84 218.13 149.57 218.13H148.28V221.77H148.29Z" fill="#FEF9EC"/>
<path d="M164.26 217.58V218.15H161.1V226.32H159.63V218.15H156.47V217.58H164.26Z" fill="#FEF9EC"/>
<path d="M168.27 217.58H169.74V223.25C169.74 223.62 169.8 223.97 169.93 224.3C170.06 224.63 170.24 224.91 170.48 225.16C170.72 225.41 171 225.6 171.34 225.74C171.68 225.88 172.05 225.95 172.46 225.95C172.87 225.95 173.25 225.88 173.59 225.74C173.92 225.6 174.21 225.4 174.44 225.16C174.68 224.91 174.86 224.63 174.98 224.3C175.11 223.97 175.17 223.62 175.17 223.25V217.58H175.82V223.25C175.82 223.7 175.75 224.12 175.6 224.52C175.45 224.92 175.23 225.26 174.92 225.56C174.61 225.86 174.21 226.09 173.73 226.26C173.25 226.43 172.67 226.52 171.99 226.52C171.39 226.52 170.86 226.43 170.39 226.26C169.93 226.09 169.54 225.85 169.22 225.55C168.9 225.25 168.67 224.9 168.51 224.5C168.35 224.1 168.27 223.67 168.27 223.21V217.58Z" fill="#FEF9EC"/>
<path d="M185.71 218.01C185.18 218.01 184.7 218.1 184.25 218.29C183.8 218.48 183.42 218.74 183.1 219.09C182.78 219.44 182.53 219.86 182.35 220.35C182.17 220.84 182.08 221.4 182.08 222.01C182.08 222.62 182.18 223.18 182.37 223.67C182.57 224.16 182.83 224.59 183.17 224.93C183.51 225.28 183.91 225.54 184.37 225.73C184.83 225.92 185.33 226.01 185.85 226.01C186.23 226.01 186.58 225.96 186.88 225.85C187.19 225.75 187.46 225.6 187.71 225.41V222.35H186.06V221.83H189.18V225.67C188.93 225.81 188.67 225.93 188.41 226.03C188.15 226.13 187.87 226.22 187.57 226.29C187.27 226.36 186.94 226.41 186.58 226.45C186.22 226.49 185.81 226.51 185.35 226.51C184.87 226.51 184.41 226.46 183.97 226.35C183.54 226.24 183.13 226.09 182.76 225.89C182.39 225.69 182.05 225.46 181.76 225.18C181.47 224.9 181.21 224.6 181 224.27C180.79 223.94 180.63 223.58 180.52 223.2C180.41 222.82 180.35 222.42 180.35 222.01C180.35 221.6 180.4 221.2 180.51 220.81C180.62 220.42 180.77 220.05 180.97 219.71C181.17 219.37 181.42 219.05 181.71 218.76C182 218.47 182.33 218.23 182.69 218.02C183.05 217.81 183.45 217.65 183.88 217.54C184.31 217.43 184.77 217.37 185.25 217.37C185.73 217.37 186.14 217.43 186.53 217.56C186.92 217.69 187.28 217.85 187.6 218.06C187.92 218.27 188.21 218.5 188.46 218.77C188.71 219.04 188.93 219.32 189.11 219.62L188.48 220.04C188.11 219.33 187.7 218.82 187.25 218.49C186.8 218.16 186.28 218 185.7 218L185.71 218.01Z" fill="#FEF9EC"/>
<path d="M197.55 217.39L201.66 226.32H200.16L198.83 223.41H195.08L193.7 226.32H192.96L197.17 217.39H197.54H197.55ZM195.34 222.84H198.56L196.97 219.38L195.34 222.84Z" fill="#FEF9EC"/>
<path d="M205.57 217.58H207.04V225.75H211.44V226.32H205.57V217.58Z" fill="#FEF9EC"/>
</g>
<defs>
<clipPath id="clip0_55_792">
<rect width="256.37" height="226.52" fill="white"/>
</clipPath>
</defs>
</svg>
