<svg width="190" height="22" viewBox="0 0 190 22" fill="none" xmlns="http://www.w3.org/2000/svg">
<g clip-path="url(#clip0_115_308)">
<path d="M1.81764 21.8581L11.0762 3.83228L20.3348 21.8581H22.1667L11.0762 0.19873L0 21.8581H1.81764Z" fill="#9A9A9A"/>
<path d="M84.6204 21.8581L93.879 3.60516L103.138 21.8581H104.955L93.879 0L82.8027 21.8581H84.6204Z" fill="#9A9A9A"/>
<path d="M54.0039 11.0854C54.0039 17.0183 58.6616 21.8583 64.3985 21.8583H76.0144V20.2402H64.3985C59.5704 20.2402 55.6369 16.1383 55.6369 11.0854C55.6369 6.0325 59.5704 1.93056 64.3985 1.93056H76.0144V0.3125H64.3985C58.6758 0.3125 54.0039 5.13831 54.0039 11.0854Z" fill="#9A9A9A"/>
<path d="M142.004 11.6101V0.283691H140.385V11.6243C140.385 17.3443 145.213 22.014 151.163 22.014C157.113 22.014 161.941 17.3585 161.941 11.6243V0.283691H160.322V11.6243C160.322 16.4501 156.218 20.3818 151.163 20.3818C146.107 20.3818 142.004 16.4501 142.004 11.6243V11.6101Z" fill="#9A9A9A"/>
<path d="M133 0.269698V21.702L112.523 4.0026L112.466 21.8581H110.848L110.876 2.58325L110.89 0.19873L131.381 17.9265V0.269698H133Z" fill="#9A9A9A"/>
<path d="M184.235 10.2195H173.585C171.313 10.2195 169.453 8.36018 169.453 6.08921C169.453 3.81824 171.313 1.95888 173.585 1.95888H189.447V0.34082H173.585C170.418 0.34082 167.834 2.92405 167.834 6.08921C167.834 9.25437 170.418 11.8376 173.585 11.8376H184.235C186.507 11.8376 188.368 13.6828 188.368 15.9679V16.1099C188.368 17.2169 187.942 18.2531 187.161 19.0337C186.38 19.8144 185.343 20.2402 184.235 20.2402H168.104V21.8582H184.235C185.769 21.8582 187.217 21.2621 188.311 20.1692C189.404 19.0763 190.001 17.6286 190.001 16.0957V15.9537C190.001 12.7886 187.416 10.2053 184.25 10.2053L184.235 10.2195Z" fill="#9A9A9A"/>
<path d="M41.5925 0.283691H25.4609L27.236 1.90176H41.5925C44.2195 1.90176 46.3638 4.03079 46.3638 6.65659C46.3638 9.2824 44.2195 11.4114 41.5925 11.4114H32.6179L44.2195 21.8721H46.6336L36.8212 13.0295H41.5925C45.1142 13.0295 47.9826 10.1766 47.9826 6.65659C47.9826 3.13659 45.1142 0.283691 41.5925 0.283691Z" fill="#9A9A9A"/>
</g>
<defs>
<clipPath id="clip0_115_308">
<rect width="190" height="22" fill="white"/>
</clipPath>
</defs>
</svg>
