<svg width="190" height="22" viewBox="0 0 190 22" fill="none" xmlns="http://www.w3.org/2000/svg">
<g clip-path="url(#clip0_115_197)">
<path d="M1.81764 21.8581L11.0762 3.83228L20.3348 21.8581H22.1667L11.0762 0.19873L0 21.8581H1.81764Z" fill="#9A9A9A"/>
<path d="M84.6204 21.8581L93.879 3.60516L103.138 21.8581H104.955L93.879 0L82.8027 21.8581H84.6204Z" fill="#9A9A9A"/>
<path d="M54.0039 11.0852C54.0039 17.0181 58.6616 21.8581 64.3985 21.8581H76.0144V20.24H64.3985C59.5704 20.24 55.6369 16.1381 55.6369 11.0852C55.6369 6.03226 59.5704 1.93032 64.3985 1.93032H76.0144V0.312256H64.3985C58.6758 0.312256 54.0039 5.13806 54.0039 11.0852Z" fill="#9A9A9A"/>
<path d="M142.004 11.6104V0.283936H140.385V11.6246C140.385 17.3446 145.213 22.0143 151.163 22.0143C157.113 22.0143 161.941 17.3588 161.941 11.6246V0.283936H160.322V11.6246C160.322 16.4504 156.218 20.382 151.163 20.382C146.107 20.382 142.004 16.4504 142.004 11.6246V11.6104Z" fill="#9A9A9A"/>
<path d="M133 0.269698V21.702L112.523 4.0026L112.466 21.8581H110.848L110.876 2.58325L110.89 0.19873L131.381 17.9265V0.269698H133Z" fill="#9A9A9A"/>
<path d="M184.235 10.2193H173.585C171.313 10.2193 169.453 8.35993 169.453 6.08896C169.453 3.818 171.313 1.95864 173.585 1.95864H189.447V0.340576H173.585C170.418 0.340576 167.834 2.9238 167.834 6.08896C167.834 9.25412 170.418 11.8374 173.585 11.8374H184.235C186.507 11.8374 188.368 13.6825 188.368 15.9677V16.1096C188.368 17.2167 187.942 18.2528 187.161 19.0335C186.38 19.8141 185.343 20.2399 184.235 20.2399H168.104V21.858H184.235C185.769 21.858 187.217 21.2619 188.311 20.169C189.404 19.0761 190.001 17.6283 190.001 16.0954V15.9535C190.001 12.7883 187.416 10.2051 184.25 10.2051L184.235 10.2193Z" fill="#9A9A9A"/>
<path d="M41.5925 0.283936H25.4609L27.236 1.902H41.5925C44.2195 1.902 46.3638 4.03103 46.3638 6.65684C46.3638 9.28265 44.2195 11.4117 41.5925 11.4117H32.6179L44.2195 21.8723H46.6336L36.8212 13.0297H41.5925C45.1142 13.0297 47.9826 10.1768 47.9826 6.65684C47.9826 3.13684 45.1142 0.283936 41.5925 0.283936Z" fill="#9A9A9A"/>
</g>
<defs>
<clipPath id="clip0_115_197">
<rect width="190" height="22" fill="white"/>
</clipPath>
</defs>
</svg>
