<svg width="190" height="22" viewBox="0 0 190 22" fill="none" xmlns="http://www.w3.org/2000/svg">
<g clip-path="url(#clip0_2_1846)">
<path d="M1.81764 21.8581L11.0762 3.83228L20.3348 21.8581H22.1667L11.0762 0.19873L0 21.8581H1.81764Z" fill="#9A9A9A"/>
<path d="M84.6196 21.8581L93.8782 3.60516L103.137 21.8581H104.954L93.8782 0L82.802 21.8581H84.6196Z" fill="#9A9A9A"/>
<path d="M54.0037 11.0852C54.0037 17.0181 58.6614 21.8581 64.3983 21.8581H76.0141V20.24H64.3983C59.5702 20.24 55.6367 16.1381 55.6367 11.0852C55.6367 6.03226 59.5702 1.93032 64.3983 1.93032H76.0141V0.312256H64.3983C58.6756 0.312256 54.0037 5.13806 54.0037 11.0852Z" fill="#9A9A9A"/>
<path d="M142.003 11.6104V0.283936H140.384V11.6246C140.384 17.3446 145.212 22.0143 151.162 22.0143C157.112 22.0143 161.94 17.3588 161.94 11.6246V0.283936H160.321V11.6246C160.321 16.4504 156.218 20.382 151.162 20.382C146.107 20.382 142.003 16.4504 142.003 11.6246V11.6104Z" fill="#9A9A9A"/>
<path d="M133 0.269698V21.702L112.523 4.0026L112.466 21.8581H110.847L110.876 2.58325L110.89 0.19873L131.381 17.9265V0.269698H133Z" fill="#9A9A9A"/>
<path d="M184.235 10.2193H173.584C171.312 10.2193 169.452 8.35993 169.452 6.08896C169.452 3.818 171.312 1.95864 173.584 1.95864H189.446V0.340576H173.584C170.418 0.340576 167.833 2.9238 167.833 6.08896C167.833 9.25412 170.418 11.8374 173.584 11.8374H184.235C186.507 11.8374 188.367 13.6825 188.367 15.9677V16.1096C188.367 17.2167 187.941 18.2528 187.16 19.0335C186.379 19.8141 185.342 20.2399 184.235 20.2399H168.103V21.858H184.235C185.768 21.858 187.217 21.2619 188.31 20.169C189.404 19.0761 190 17.6283 190 16.0954V15.9535C190 12.7883 187.415 10.2051 184.249 10.2051L184.235 10.2193Z" fill="#9A9A9A"/>
<path d="M41.5927 0.283936H25.4612L27.2362 1.902H41.5927C44.2198 1.902 46.364 4.03103 46.364 6.65684C46.364 9.28265 44.2198 11.4117 41.5927 11.4117H32.6181L44.2198 21.8723H46.6338L36.8214 13.0297H41.5927C45.1144 13.0297 47.9829 10.1768 47.9829 6.65684C47.9829 3.13684 45.1144 0.283936 41.5927 0.283936Z" fill="#9A9A9A"/>
</g>
<defs>
<clipPath id="clip0_2_1846">
<rect width="190" height="22" fill="white"/>
</clipPath>
</defs>
</svg>
