<svg width="190" height="22" viewBox="0 0 190 22" fill="none" xmlns="http://www.w3.org/2000/svg">
<g clip-path="url(#clip0_10_233)">
<path d="M1.81764 21.8581L11.0762 3.83228L20.3348 21.8581H22.1667L11.0762 0.19873L0 21.8581H1.81764Z" fill="#9A9A9A"/>
<path d="M84.6196 21.8581L93.8782 3.60516L103.137 21.8581H104.954L93.8782 0L82.802 21.8581H84.6196Z" fill="#9A9A9A"/>
<path d="M54.0037 11.0854C54.0037 17.0183 58.6614 21.8583 64.3983 21.8583H76.0141V20.2402H64.3983C59.5702 20.2402 55.6367 16.1383 55.6367 11.0854C55.6367 6.0325 59.5702 1.93056 64.3983 1.93056H76.0141V0.3125H64.3983C58.6756 0.3125 54.0037 5.13831 54.0037 11.0854Z" fill="#9A9A9A"/>
<path d="M142.003 11.6101V0.283691H140.384V11.6243C140.384 17.3443 145.212 22.014 151.162 22.014C157.112 22.014 161.94 17.3585 161.94 11.6243V0.283691H160.321V11.6243C160.321 16.4501 156.218 20.3818 151.162 20.3818C146.107 20.3818 142.003 16.4501 142.003 11.6243V11.6101Z" fill="#9A9A9A"/>
<path d="M133 0.269698V21.702L112.523 4.0026L112.466 21.8581H110.847L110.876 2.58325L110.89 0.19873L131.381 17.9265V0.269698H133Z" fill="#9A9A9A"/>
<path d="M184.235 10.2195H173.584C171.312 10.2195 169.452 8.36018 169.452 6.08921C169.452 3.81824 171.312 1.95888 173.584 1.95888H189.446V0.34082H173.584C170.418 0.34082 167.833 2.92405 167.833 6.08921C167.833 9.25437 170.418 11.8376 173.584 11.8376H184.235C186.507 11.8376 188.367 13.6828 188.367 15.9679V16.1099C188.367 17.2169 187.941 18.2531 187.16 19.0337C186.379 19.8144 185.342 20.2402 184.235 20.2402H168.103V21.8582H184.235C185.768 21.8582 187.217 21.2621 188.31 20.1692C189.404 19.0763 190 17.6286 190 16.0957V15.9537C190 12.7886 187.415 10.2053 184.249 10.2053L184.235 10.2195Z" fill="#9A9A9A"/>
<path d="M41.5927 0.283691H25.4612L27.2362 1.90176H41.5927C44.2198 1.90176 46.364 4.03079 46.364 6.65659C46.364 9.2824 44.2198 11.4114 41.5927 11.4114H32.6181L44.2198 21.8721H46.6338L36.8214 13.0295H41.5927C45.1144 13.0295 47.9829 10.1766 47.9829 6.65659C47.9829 3.13659 45.1144 0.283691 41.5927 0.283691Z" fill="#9A9A9A"/>
</g>
<defs>
<clipPath id="clip0_10_233">
<rect width="190" height="22" fill="white"/>
</clipPath>
</defs>
</svg>
