<svg width="82" height="82" viewBox="0 0 82 82" fill="none" xmlns="http://www.w3.org/2000/svg">
<g filter="url(#filter0_d_14_4)">
<circle cx="41" cy="41" r="40" stroke="#9A9A9A" stroke-width="2"/>
<path d="M40.2929 54.7071C40.6834 55.0976 41.3166 55.0976 41.7071 54.7071L48.0711 48.3431C48.4616 47.9526 48.4616 47.3195 48.0711 46.9289C47.6805 46.5384 47.0474 46.5384 46.6569 46.9289L41 52.5858L35.3431 46.9289C34.9526 46.5384 34.3195 46.5384 33.9289 46.9289C33.5384 47.3195 33.5384 47.9526 33.9289 48.3431L40.2929 54.7071ZM41 27L40 27L40 54L41 54L42 54L42 27L41 27Z" fill="#9A9A9A"/>
</g>
<defs>
<filter id="filter0_d_14_4" x="-3.2" y="0" width="94.4" height="111.2" filterUnits="userSpaceOnUse" color-interpolation-filters="sRGB">
<feFlood flood-opacity="0" result="BackgroundImageFix"/>
<feColorMatrix in="SourceAlpha" type="matrix" values="0 0 0 0 0 0 0 0 0 0 0 0 0 0 0 0 0 0 127 0" result="hardAlpha"/>
<feOffset dx="3" dy="23"/>
<feGaussianBlur stdDeviation="3.1"/>
<feComposite in2="hardAlpha" operator="out"/>
<feColorMatrix type="matrix" values="0 0 0 0 0 0 0 0 0 0 0 0 0 0 0 0 0 0 0.25 0"/>
<feBlend mode="normal" in2="BackgroundImageFix" result="effect1_dropShadow_14_4"/>
<feBlend mode="normal" in="SourceGraphic" in2="effect1_dropShadow_14_4" result="shape"/>
</filter>
</defs>
</svg>
