<svg width="190" height="22" viewBox="0 0 190 22" fill="none" xmlns="http://www.w3.org/2000/svg">
<g clip-path="url(#clip0_113_159)">
<path d="M1.81764 21.8581L11.0762 3.83228L20.3348 21.8581H22.1667L11.0762 0.19873L0 21.8581H1.81764Z" fill="#9A9A9A"/>
<path d="M84.6204 21.8581L93.879 3.60516L103.138 21.8581H104.955L93.879 0L82.8027 21.8581H84.6204Z" fill="#9A9A9A"/>
<path d="M54.0039 11.0852C54.0039 17.0181 58.6616 21.8581 64.3985 21.8581H76.0144V20.24H64.3985C59.5704 20.24 55.6369 16.1381 55.6369 11.0852C55.6369 6.03226 59.5704 1.93032 64.3985 1.93032H76.0144V0.312256H64.3985C58.6758 0.312256 54.0039 5.13806 54.0039 11.0852Z" fill="#9A9A9A"/>
<path d="M142.004 11.6103V0.283813H140.385V11.6245C140.385 17.3445 145.213 22.0141 151.163 22.0141C157.113 22.0141 161.941 17.3587 161.941 11.6245V0.283813H160.322V11.6245C160.322 16.4503 156.218 20.3819 151.163 20.3819C146.107 20.3819 142.004 16.4503 142.004 11.6245V11.6103Z" fill="#9A9A9A"/>
<path d="M133 0.269698V21.702L112.523 4.0026L112.466 21.8581H110.848L110.876 2.58325L110.89 0.19873L131.381 17.9265V0.269698H133Z" fill="#9A9A9A"/>
<path d="M184.235 10.2194H173.585C171.313 10.2194 169.453 8.36005 169.453 6.08909C169.453 3.81812 171.313 1.95876 173.585 1.95876H189.447V0.340698H173.585C170.418 0.340698 167.834 2.92392 167.834 6.08909C167.834 9.25425 170.418 11.8375 173.585 11.8375H184.235C186.507 11.8375 188.368 13.6826 188.368 15.9678V16.1097C188.368 17.2168 187.942 18.253 187.161 19.0336C186.38 19.8142 185.343 20.2401 184.235 20.2401H168.104V21.8581H184.235C185.769 21.8581 187.217 21.262 188.311 20.1691C189.404 19.0762 190.001 17.6284 190.001 16.0955V15.9536C190.001 12.7884 187.416 10.2052 184.25 10.2052L184.235 10.2194Z" fill="#9A9A9A"/>
<path d="M41.5925 0.283813H25.4609L27.236 1.90188H41.5925C44.2195 1.90188 46.3638 4.03091 46.3638 6.65672C46.3638 9.28252 44.2195 11.4116 41.5925 11.4116H32.6179L44.2195 21.8722H46.6336L36.8212 13.0296H41.5925C45.1142 13.0296 47.9826 10.1767 47.9826 6.65672C47.9826 3.13672 45.1142 0.283813 41.5925 0.283813Z" fill="#9A9A9A"/>
</g>
<defs>
<clipPath id="clip0_113_159">
<rect width="190" height="22" fill="white"/>
</clipPath>
</defs>
</svg>
