<svg width="389" height="151" viewBox="0 0 389 151" fill="none" xmlns="http://www.w3.org/2000/svg">
<g clip-path="url(#clip0_32_60)">
<path d="M194.5 0C149.397 40.7828 0 90.1023 0 90.1023C60.368 77.3145 194.5 75.4827 194.5 75.4827C194.5 75.4827 328.632 77.3145 389 90.1023C389 90.1023 239.603 40.7828 194.5 0Z" fill="#FEF9EC"/>
<path d="M234.134 83.4665C234.134 83.4665 215.857 81.7384 194.5 81.7384C173.143 81.7384 154.866 83.4665 154.866 83.4665L194.5 115.229L234.134 83.4665Z" fill="#FEF9EC"/>
<path d="M152.305 140.044C149.743 140.044 147.667 137.97 147.667 135.482C147.667 132.993 149.743 130.885 152.305 130.885C154.866 130.885 156.943 132.993 156.943 135.482C156.943 137.97 154.901 140.044 152.305 140.044ZM155.974 135.447C155.974 133.477 154.416 131.784 152.305 131.784C150.193 131.784 148.67 133.443 148.67 135.447C148.67 137.452 150.332 139.111 152.305 139.111C154.278 139.111 155.939 137.417 155.939 135.447H155.974Z" fill="#FEF9EC"/>
<path d="M160.82 131.023C162.932 131.023 164.005 131.818 164.005 133.477C164.005 134.825 163.174 135.793 161.789 135.931L164.628 139.906H163.416L160.716 136H160.474V139.906H159.47V131.023H160.82ZM160.474 135.136H160.924C162.205 135.136 163.036 134.687 163.036 133.546C163.036 132.717 162.724 131.957 160.993 131.957H160.474V135.136Z" fill="#FEF9EC"/>
<path d="M168.055 131.023V139.906H167.051V131.023H168.055Z" fill="#FEF9EC"/>
<path d="M178.197 133.443C177.435 132.371 176.466 131.784 175.151 131.784C173.178 131.784 171.516 133.443 171.516 135.482C171.516 137.521 173.385 139.111 175.081 139.111C176.778 139.111 178.266 137.936 178.266 136.346H175.635V135.413H179.339V135.931C179.339 136.933 179.062 137.936 178.231 138.765C177.435 139.56 176.293 140.044 175.116 140.044C172.658 140.044 170.547 138.005 170.547 135.482C170.547 132.959 172.658 130.885 175.185 130.885C176.743 130.885 177.989 131.576 178.958 132.821L178.231 133.477L178.197 133.443Z" fill="#FEF9EC"/>
<path d="M182.87 131.023V139.906H181.866V131.023H182.87Z" fill="#FEF9EC"/>
<path d="M185.916 130.643L192.838 137.901V131.023H193.842V140.286L186.919 133.063V139.906H185.916V130.643Z" fill="#FEF9EC"/>
<path d="M206.2 131.023V131.957H204.019V139.906H203.015V131.957H200.869V131.023H206.165H206.2Z" fill="#FEF9EC"/>
<path d="M209.765 131.023C211.877 131.023 212.95 131.818 212.95 133.477C212.95 134.825 212.119 135.793 210.735 135.931L213.573 139.906H212.362L209.662 136H209.419V139.906H208.416V131.023H209.765ZM209.385 135.136H209.835C211.115 135.136 211.946 134.687 211.946 133.546C211.946 132.717 211.635 131.957 209.904 131.957H209.385V135.136Z" fill="#FEF9EC"/>
<path d="M219.25 130.609L223.23 139.906H222.123L221.084 137.383H217.276L216.203 139.906H215.13L219.25 130.609ZM217.692 136.45H220.703L219.215 132.89L217.692 136.45Z" fill="#FEF9EC"/>
<path d="M225.619 131.023L228.146 137.798L230.673 131.023H231.746L228.146 140.424L224.546 131.023H225.619Z" fill="#FEF9EC"/>
<path d="M238.53 131.023V131.957H234.895V134.583H238.392V135.516H234.895V139.007H238.53V139.94H233.926V131.058H238.53V131.023Z" fill="#FEF9EC"/>
<path d="M242.373 131.023V138.973H244.83V139.906H241.403V131.023H242.407H242.373Z" fill="#FEF9EC"/>
<path d="M99.5864 127.913L100.14 129.157L124.994 129.192L125.582 128.258L124.163 126.634L123.021 127.775L99.5864 127.913Z" fill="#FEF9EC"/>
<path d="M105.333 142.982L105.921 144.226H120.217L120.805 143.293L119.386 141.668L118.209 142.809L105.333 142.982Z" fill="#FEF9EC"/>
<path d="M111.978 120.931L114.021 121.726V149.998L111.944 151L111.978 120.931Z" fill="#FEF9EC"/>
<path d="M110.109 129.123H112.532C112.532 129.123 108.552 139.249 98.1326 146.023L97.9595 145.159C97.9595 145.159 106.198 139.664 110.109 129.157V129.123Z" fill="#FEF9EC"/>
<path d="M113.778 128.881H115.232C115.232 128.881 119.594 141.461 128.074 143.846L126.517 145.954C126.517 145.954 119.247 143.673 113.813 128.881H113.778Z" fill="#FEF9EC"/>
<path d="M276.052 128.258L276.606 129.122L288.167 129.088L288.548 128.362L287.025 127.256L286.091 128.12L276.052 128.258Z" fill="#FEF9EC"/>
<path d="M275.983 133.062L276.537 134.03L287.683 133.996L288.029 133.201L286.61 132.164V133.062H275.983Z" fill="#FEF9EC"/>
<path d="M275.845 137.659L276.433 138.627L287.718 138.592L288.064 137.797L286.644 136.726L286.679 137.659H275.845Z" fill="#FEF9EC"/>
<path d="M272.902 123.247L273.491 124.595L289.275 124.629L289.864 123.662L288.237 122.279L287.233 123.212L272.902 123.247Z" fill="#FEF9EC"/>
<path d="M275.048 126.841L276.675 127.533L276.779 138.903L275.152 139.906L275.048 126.841Z" fill="#FEF9EC"/>
<path d="M286.541 128.293L288.167 128.362L288.237 139.007L286.575 140.009L286.541 128.293Z" fill="#FEF9EC"/>
<path d="M263.072 122.659L263.937 122.003C263.937 122.003 267.087 123.696 268.679 125.839L266.949 127.118C266.949 127.118 265.495 124.629 263.072 122.694V122.659Z" fill="#FEF9EC"/>
<path d="M261.168 128.604L262.033 127.947C262.033 127.947 265.183 129.641 266.776 131.784L265.045 133.062C265.045 133.062 263.591 130.574 261.168 128.639V128.604Z" fill="#FEF9EC"/>
<path d="M285.19 144.088L286.333 143.224C286.333 143.224 289.483 144.917 291.075 147.06L289.102 148.511C289.102 148.511 287.613 146.058 285.19 144.088Z" fill="#FEF9EC"/>
<path d="M271.518 147.371L272.66 148.235C272.66 148.235 275.81 146.541 277.402 144.399L275.429 142.947C275.429 142.947 273.941 145.401 271.518 147.371Z" fill="#FEF9EC"/>
<path d="M281.452 125.528L283.46 126.357L281.21 128.604H279.029L281.452 125.528Z" fill="#FEF9EC"/>
<path d="M267.572 134.721L268.333 135.413C268.333 135.413 265.529 141.979 261.653 147.44L259.887 145.747C260.372 145.574 264.664 140.459 267.572 134.721Z" fill="#FEF9EC"/>
<path d="M271.414 121.968L273.56 122.728C273.56 122.728 273.421 134.929 273.075 138.731C272.729 142.532 266.429 149.065 266.429 149.065L265.495 148.304C265.495 148.304 270.583 142.187 271.033 138.834C271.345 136.484 271.414 121.968 271.414 121.968Z" fill="#FEF9EC"/>
<path d="M280.864 137.694H282.733C282.733 137.694 282.871 145.332 282.802 148.339C282.802 149.998 279.306 149.963 277.714 149.963L276.364 148.615C276.364 148.615 278.925 148.615 279.86 148.27C280.448 148.062 280.829 148.062 280.968 147.44C281.071 147.025 280.864 137.694 280.864 137.694Z" fill="#FEF9EC"/>
</g>
<defs>
<clipPath id="clip0_32_60">
<rect width="389" height="151" fill="white"/>
</clipPath>
</defs>
</svg>
